<?xml version="1.0" encoding="utf-8"?>
<!-- Generator: Adobe Illustrator 24.0.1, SVG Export Plug-In . SVG Version: 6.00 Build 0)  -->
<svg version="1.1" id="Слой_1" xmlns="http://www.w3.org/2000/svg" xmlns:xlink="http://www.w3.org/1999/xlink" x="0px" y="0px"
	 viewBox="0 0 5500 4000" style="enable-background:new 0 0 5500 4000;" xml:space="preserve">
<style type="text/css">
	.st0{fill:#C3A079;}
	.st1{fill:#FFFFFF;}
	.st2{fill:#7F674C;}
	.st3{fill:#9D7F5E;}
</style>
<g>
	<g>
		<g>
			<g>
				<g>
					<g>
						<g>
							<g>
								<g>
									<g>
										<path class="st0" d="M2085.7,908.2l-715.2,242.5c-8.7,3-18.3,0.2-24.2-6.8c-5.9-7.1-6.8-17-2.4-25.1l177.7-319.5
											c5.2-9.3,16.2-13.6,26.3-10.4l110.7,35.6l66.2-95.6c6-8.7,17.4-12,27.2-7.7l335.4,145.5c8.4,3.7,13.8,12.1,13.4,21.3
											C2100.4,897.2,2094.4,905.2,2085.7,908.2z M1410.8,1090l605.9-205.4L1751,769.3l-65.2,94.2c-5.6,8.1-15.8,11.5-25.1,8.5
											l-109.1-35.1L1410.8,1090z"/>
									</g>
								</g>
							</g>
						</g>
					</g>
					<g>
						<g>
							<g>
								<g>
									<g>
										<path class="st0" d="M1370.5,1150.7c-2.9,1-6,1.4-9.1,1.1c-8.8-0.8-16.2-6.7-19.1-15l-143.4-422.9
											c-2.7-8-0.7-16.8,5.2-22.8c5.9-6,14.7-8.1,22.7-5.6l321.1,103.4c6.3,2,11.4,6.8,13.9,13c2.4,6.2,2,13.2-1.3,19
											l-177.7,319.5C1380,1145.4,1375.6,1148.9,1370.5,1150.7z M1255.2,741.4l113.1,333.5l140.2-252L1255.2,741.4z"/>
									</g>
								</g>
							</g>
						</g>
					</g>
					<g>
						<g>
							<g>
								<g>
									<g>
										<path class="st0" d="M2085.7,908.2c-5.1,1.7-10.8,1.6-16-0.7L1734.3,762c-6.1-2.7-10.7-7.9-12.5-14.3
											c-1.8-6.4-0.7-13.3,3.1-18.8l192-277.4c4.8-6.9,13.1-10.5,21.4-9.4c8.3,1.2,15.3,6.9,18,14.9L2099.6,880
											c2.8,8.3,0.5,17.6-6,23.5C2091.3,905.6,2088.6,907.2,2085.7,908.2z M1776.8,732l264.5,114.8l-113.1-333.5L1776.8,732z"/>
									</g>
								</g>
							</g>
						</g>
					</g>
					<g>
						<g>
							<g>
								<g>
									<g>
										<path class="st0" d="M1674.7,871.9c-4.4,1.5-9.3,1.6-14,0.1l-447.6-144.1c-9.1-2.9-15.4-11.4-15.4-21
											c-0.1-9.6,6-18.2,15.1-21.2L1928,443.1c9.1-3.1,19.1,0,24.9,7.7c5.8,7.7,6,18.2,0.5,26.1l-267.6,386.6
											C1683,867.5,1679.1,870.4,1674.7,871.9z M1290.9,706.2l367.8,118.4l219.9-317.7L1290.9,706.2z"/>
									</g>
								</g>
							</g>
						</g>
					</g>
				</g>
				<g>
					<g>
						<g>
							<g>
								<g>
									<g>
										<path class="st0" d="M2023.4,3378.1L1268,3752.8c-9.2,4.6-20.3,3-27.8-3.9c-7.6-6.9-10.1-17.8-6.3-27.4l149.1-380
											c4.3-11,15.9-17.5,27.5-15.4l127.8,23l59-115.7c5.4-10.6,17.5-15.8,28.9-12.6l392.8,111.1c9.9,2.8,17,11.4,18,21.6
											C2038,3363.7,2032.6,3373.5,2023.4,3378.1z M1303.7,3679.6l639.9-317.5l-311.2-88.1l-58.1,113.9
											c-5,9.8-15.8,15.1-26.5,13.2l-125.9-22.6L1303.7,3679.6z"/>
									</g>
								</g>
							</g>
						</g>
					</g>
					<g>
						<g>
							<g>
								<g>
									<g>
										<path class="st0" d="M1268,3752.8c-3,1.5-6.4,2.4-10,2.6c-9.8,0.4-19-5-23.3-13.8l-221.6-446.7c-4.2-8.4-3.2-18.5,2.4-26
											c5.6-7.5,15-11.2,24.3-9.5l370.7,66.6c7.3,1.3,13.7,5.8,17.3,12.3c3.6,6.5,4.2,14.3,1.4,21.2l-149.1,380
											C1277.8,3745.5,1273.5,3750.1,1268,3752.8z M1079.6,3317.1l174.7,352.2l117.6-299.7L1079.6,3317.1z"/>
									</g>
								</g>
							</g>
						</g>
					</g>
					<g>
						<g>
							<g>
								<g>
									<g>
										<path class="st0" d="M2023.4,3378c-5.4,2.7-11.8,3.4-17.8,1.7l-392.8-111.1c-7.2-2-13-7.2-16-14c-3-6.8-2.7-14.6,0.6-21.2
											l171.2-335.5c4.3-8.4,12.9-13.6,22.3-13.6c9.4,0.1,17.9,5.4,22.1,13.8l221.6,446.7c4.4,8.8,3.1,19.4-3.1,26.9
											C2029.2,3374.4,2026.4,3376.5,2023.4,3378z M1655.4,3229l309.8,87.6l-174.7-352.2L1655.4,3229z"/>
									</g>
								</g>
							</g>
						</g>
					</g>
					<g>
						<g>
							<g>
								<g>
									<g>
										<path class="st0" d="M1563.2,3399c-4.7,2.3-10,3.2-15.4,2.2l-516.7-92.9c-10.5-1.9-18.7-10.3-20.2-21
											c-1.5-10.6,4-21,13.6-25.8l755.3-374.7c9.6-4.8,21.2-2.8,28.7,4.8c7.5,7.6,9.3,19.2,4.5,28.8L1574.2,3388
											C1571.8,3392.9,1567.8,3396.7,1563.2,3399z M1113.8,3272.7l424.6,76.3l196.1-384.2L1113.8,3272.7z"/>
									</g>
								</g>
							</g>
						</g>
					</g>
				</g>
				<g>
					<g>
						<g>
							<g>
								<g>
									<g>
										<path class="st0" d="M4447.3,2826.4l-770.5-332.2c-9.4-4-15.3-13.5-14.9-23.7c0.4-10.2,7-19.1,16.7-22.4l384.4-131.3
											c11.2-3.8,23.5,0.8,29.4,11l64.8,111.8l125.8-29.6c11.5-2.7,23.3,3.1,28.2,13.8l168.4,369.7c4.2,9.3,2.3,20.3-4.8,27.6
											C4467.6,2828.3,4456.7,2830.4,4447.3,2826.4z M3755.3,2474.2l652.8,281.5l-133.4-292.9l-123.9,29.2
											c-10.6,2.5-21.6-2.2-27.1-11.7l-63.8-110.1L3755.3,2474.2z"/>
									</g>
								</g>
							</g>
						</g>
					</g>
					<g>
						<g>
							<g>
								<g>
									<g>
										<path class="st0" d="M3676.8,2494.2c-3.1-1.3-6-3.3-8.4-5.9c-6.6-7.2-8.4-17.6-4.6-26.6l196.4-455.6
											c3.7-8.6,11.9-14.3,21.2-14.9c9.3-0.6,18.2,4.2,22.9,12.3l188,324.3c3.7,6.4,4.4,14.1,1.8,21.1
											c-2.6,6.9-8.2,12.3-15.2,14.7l-384.4,131.3C3688.7,2496.9,3682.3,2496.6,3676.8,2494.2z M3886.3,2070.8l-154.9,359.3
											l303.1-103.6L3886.3,2070.8z"/>
									</g>
								</g>
							</g>
						</g>
					</g>
					<g>
						<g>
							<g>
								<g>
									<g>
										<path class="st0" d="M4447.3,2826.4c-5.5-2.4-10.1-6.8-12.7-12.5l-168.4-369.7c-3.1-6.7-3-14.5,0.3-21.1
											c3.3-6.6,9.3-11.5,16.5-13.2l364.9-85.9c9.1-2.1,18.6,1,24.6,8.2c6,7.2,7.5,17.1,3.8,25.7l-196.4,455.6
											c-3.9,9-12.7,14.8-22.5,14.9C4453.8,2828.5,4450.4,2827.7,4447.3,2826.4z M4323.7,2451.2l132.8,291.5l154.9-359.3
											L4323.7,2451.2z"/>
									</g>
								</g>
							</g>
						</g>
					</g>
					<g>
						<g>
							<g>
								<g>
									<g>
										<path class="st0" d="M4135.3,2490.5c-4.8-2.1-8.9-5.6-11.6-10.3l-262-452c-5.3-9.2-4.2-20.8,2.9-28.8
											c7.1-8,18.5-10.5,28.3-6.3l770.5,332.2c9.8,4.2,15.8,14.2,14.8,24.9c-0.9,10.6-8.6,19.5-19,21.9l-508.5,119.8
											C4145.4,2493.2,4140,2492.6,4135.3,2490.5z M3942,2068.2l215.3,371.4l417.8-98.4L3942,2068.2z"/>
									</g>
								</g>
							</g>
						</g>
					</g>
				</g>
			</g>
		</g>
		<g>
			<g>
				<path class="st1" d="M1489.3,2792.4l-1,0c-4.3,0-7.8-3.5-7.8-7.9c0-4.3,3.5-7.8,7.8-7.8c0,0,0,0,0,0l0.9,0
					c20.7,0,41.5-1.2,62.1-3.7c4.3-0.5,8.2,2.6,8.7,6.9c0.5,4.3-2.6,8.2-6.9,8.7C1532.1,2791.1,1510.6,2792.4,1489.3,2792.4z
					 M1399,2784.7c-0.4,0-0.9,0-1.3-0.1c-21.2-3.6-42.5-8.6-63.3-14.7c-4.2-1.2-6.5-5.6-5.3-9.8c1.2-4.2,5.6-6.5,9.8-5.3
					c20.2,6,40.9,10.8,61.5,14.3c4.3,0.7,7.1,4.8,6.4,9.1C1406.1,2782,1402.8,2784.7,1399,2784.7z M1640.1,2770.8
					c-3.4,0-6.5-2.2-7.5-5.6c-1.2-4.2,1.2-8.5,5.3-9.7c20.1-5.9,40.1-13.1,59.4-21.3c4-1.7,8.6,0.2,10.3,4.1c1.7,4-0.2,8.6-4.1,10.3
					c-19.9,8.5-40.5,15.9-61.2,21.9C1641.5,2770.7,1640.8,2770.8,1640.1,2770.8z M1253,2737.8c-1.2,0-2.3-0.3-3.4-0.8
					c-19.4-9.5-38.5-20.2-56.7-31.9c-3.6-2.3-4.7-7.2-2.4-10.8c2.3-3.6,7.2-4.7,10.8-2.4c17.6,11.3,36.1,21.8,55,30.9
					c3.9,1.9,5.5,6.6,3.6,10.5C1258.7,2736.2,1255.9,2737.8,1253,2737.8z M1779.6,2707.3c-2.6,0-5.1-1.3-6.6-3.6
					c-2.3-3.7-1.3-8.5,2.4-10.8c17.7-11.3,34.9-23.8,51.1-37.1c3.4-2.8,8.3-2.3,11,1.1c2.8,3.3,2.3,8.3-1.1,11
					c-16.7,13.7-34.4,26.6-52.6,38.2C1782.5,2706.9,1781.1,2707.3,1779.6,2707.3z M1126.1,2651.8c-1.9,0-3.8-0.7-5.3-2.1
					c-15.9-14.6-31.2-30.2-45.3-46.6c-2.8-3.3-2.5-8.2,0.8-11.1c3.3-2.8,8.2-2.5,11.1,0.8c13.7,15.9,28.5,31.1,44,45.3
					c3.2,2.9,3.4,7.9,0.5,11.1C1130.4,2650.9,1128.3,2651.8,1126.1,2651.8z M1895.8,2607.2c-1.8,0-3.7-0.6-5.2-1.9
					c-3.3-2.8-3.6-7.8-0.8-11.1c13.8-15.8,26.8-32.7,38.5-50c2.4-3.6,7.3-4.5,10.9-2.1c3.6,2.4,4.5,7.3,2.1,10.9
					c-12.1,17.9-25.5,35.2-39.7,51.5C1900.1,2606.2,1898,2607.2,1895.8,2607.2z M1028.8,2533.3c-2.7,0-5.2-1.3-6.7-3.8
					c-11.2-18.5-21.4-37.8-30.4-57.5c-1.8-3.9-0.1-8.6,3.9-10.4c3.9-1.8,8.6-0.1,10.4,3.9c8.7,19.1,18.6,37.9,29.5,55.8
					c2.2,3.7,1.1,8.5-2.6,10.8C1031.6,2532.9,1030.2,2533.3,1028.8,2533.3z M1978.8,2478.3c-1.1,0-2.2-0.2-3.3-0.7
					c-3.9-1.8-5.7-6.5-3.9-10.4c8.7-19,16.4-38.8,22.8-58.9l0.2-0.7c1.3-4.1,5.7-6.4,9.9-5.1c4.1,1.3,6.4,5.7,5.1,9.9l-0.2,0.7
					c-6.6,20.6-14.5,41-23.5,60.6C1984.7,2476.6,1981.8,2478.3,1978.8,2478.3z M968.6,2392.3c-3.5,0-6.6-2.3-7.6-5.8
					c-5.6-20.9-10-42.3-13-63.7c-0.6-4.3,2.4-8.3,6.7-8.9c4.3-0.6,8.3,2.4,8.9,6.7c3,20.7,7.2,41.5,12.7,61.8
					c1.1,4.2-1.4,8.5-5.6,9.6C969.9,2392.2,969.2,2392.3,968.6,2392.3z M2022.5,2330.5c-0.4,0-0.8,0-1.1-0.1
					c-4.3-0.6-7.3-4.6-6.6-8.9c3-20.8,4.8-41.9,5.3-62.9c0.1-4.3,3.7-7.8,8-7.7c4.3,0.1,7.8,3.7,7.7,8c-0.5,21.6-2.4,43.4-5.5,64.8
					C2029.6,2327.7,2026.3,2330.5,2022.5,2330.5z M950.5,2240.1c-0.1,0-0.1,0-0.2,0c-4.3-0.1-7.8-3.7-7.6-8
					c0.5-21.6,2.4-43.4,5.5-64.8c0.6-4.3,4.6-7.3,8.9-6.6c4.3,0.6,7.3,4.6,6.6,8.9c-3,20.8-4.8,41.9-5.4,62.9
					C958.2,2236.7,954.7,2240.1,950.5,2240.1z M2022.6,2177.2c-3.8,0-7.2-2.8-7.8-6.7c-3-20.7-7.3-41.5-12.7-61.8
					c-1.1-4.2,1.4-8.5,5.5-9.6c4.2-1.1,8.5,1.4,9.6,5.5c5.6,20.9,10,42.3,13.1,63.6c0.6,4.3-2.4,8.3-6.7,8.9
					C2023.3,2177.1,2022.9,2177.2,2022.6,2177.2z M976.2,2088.9c-0.8,0-1.6-0.1-2.4-0.4c-4.1-1.3-6.4-5.7-5.1-9.9l0.1-0.4
					c6.6-20.5,14.4-40.7,23.3-60.2c1.8-3.9,6.5-5.7,10.4-3.9c3.9,1.8,5.7,6.5,3.9,10.4c-8.6,18.9-16.3,38.6-22.7,58.5l-0.1,0.3
					C982.6,2086.8,979.5,2088.9,976.2,2088.9z M1979.4,2030.1c-3,0-5.8-1.7-7.1-4.6c-8.7-19.1-18.7-37.9-29.6-55.8
					c-2.3-3.7-1.1-8.5,2.6-10.8c3.7-2.3,8.5-1.1,10.8,2.6c11.2,18.5,21.5,37.8,30.4,57.4c1.8,3.9,0.1,8.6-3.9,10.4
					C1981.6,2029.9,1980.5,2030.1,1979.4,2030.1z M1043.2,1951c-1.5,0-3-0.4-4.4-1.4c-3.6-2.4-4.5-7.3-2.1-10.9
					c12.1-17.9,25.5-35.2,39.6-51.6c2.8-3.3,7.8-3.6,11.1-0.8c3.3,2.8,3.6,7.8,0.8,11.1c-13.8,15.8-26.7,32.7-38.5,50.1
					C1048.2,1949.8,1045.8,1951,1043.2,1951z M1896.6,1901c-2.2,0-4.4-0.9-5.9-2.7c-13.7-15.9-28.5-31.1-44-45.2
					c-3.2-2.9-3.4-7.9-0.5-11.1c2.9-3.2,7.9-3.4,11.1-0.5c16,14.5,31.2,30.2,45.4,46.6c2.8,3.3,2.5,8.2-0.8,11.1
					C1900.3,1900.4,1898.4,1901,1896.6,1901z M1146.6,1837.7c-2.3,0-4.5-1-6.1-2.9c-2.8-3.3-2.3-8.3,1.1-11
					c16.7-13.7,34.4-26.6,52.6-38.2c3.7-2.3,8.5-1.3,10.8,2.4c2.3,3.6,1.3,8.5-2.4,10.8c-17.7,11.3-34.9,23.8-51.1,37.1
					C1150.1,1837.1,1148.3,1837.7,1146.6,1837.7z M1780.8,1800.5c-1.5,0-2.9-0.4-4.2-1.2c-17.6-11.3-36.1-21.7-55-30.9
					c-3.9-1.9-5.5-6.6-3.6-10.5c1.9-3.9,6.6-5.5,10.5-3.6c19.5,9.4,38.5,20.1,56.7,31.8c3.6,2.3,4.7,7.2,2.4,10.8
					C1785.9,1799.2,1783.4,1800.5,1780.8,1800.5z M1277.6,1758.1c-3,0-5.9-1.8-7.2-4.8c-1.7-4,0.1-8.6,4.1-10.3
					c19.9-8.5,40.4-15.9,61.2-22c4.2-1.2,8.5,1.2,9.7,5.3c1.2,4.2-1.2,8.5-5.3,9.7c-20.1,5.9-40.1,13.1-59.4,21.3
					C1279.7,1757.9,1278.7,1758.1,1277.6,1758.1z M1641.4,1736.8c-0.7,0-1.5-0.1-2.2-0.3c-20.2-6-40.9-10.8-61.5-14.3
					c-4.3-0.7-7.1-4.8-6.4-9.1c0.7-4.3,4.8-7.1,9.1-6.4c21.2,3.6,42.5,8.6,63.3,14.7c4.2,1.2,6.5,5.6,5.3,9.7
					C1647.9,1734.6,1644.8,1736.8,1641.4,1736.8z M1425.7,1718.5c-3.9,0-7.3-2.9-7.8-6.9c-0.5-4.3,2.6-8.2,6.9-8.7
					c21.3-2.5,42.9-3.8,64.2-3.8c0,0,0,0,0,0h0.6c4.3,0,7.8,3.5,7.8,7.8c0,4.3-3.5,7.8-7.8,7.8h-0.6c0,0,0,0,0,0
					c-20.8,0-41.7,1.2-62.4,3.7C1426.3,1718.4,1426,1718.5,1425.7,1718.5z"/>
			</g>
			<g>
				<path class="st1" d="M3922.8,3492.6c-5.7,0-10.4-4.6-10.5-10.3c-0.1-5.8,4.6-10.5,10.3-10.6c21.7-0.3,43.7-1.1,65.3-2.6
					c5.8-0.4,10.8,4,11.1,9.7c0.4,5.8-4,10.8-9.7,11.1c-22,1.5-44.3,2.4-66.5,2.6C3922.9,3492.6,3922.9,3492.6,3922.8,3492.6z
					 M3830.6,3490.1c-0.2,0-0.5,0-0.7,0c-22.1-1.5-44.3-3.6-66.2-6.3c-5.7-0.7-9.8-5.9-9.1-11.7c0.7-5.7,5.9-9.8,11.7-9.1
					c21.5,2.7,43.4,4.8,65,6.2c5.8,0.4,10.1,5.4,9.7,11.1C3840.7,3485.8,3836.1,3490.1,3830.6,3490.1z M4080.4,3480.1
					c-5.1,0-9.6-3.7-10.3-8.9c-0.8-5.7,3.1-11,8.8-11.9c21.5-3.2,43.1-7,64.3-11.4c5.7-1.2,11.2,2.5,12.4,8.1
					c1.2,5.7-2.5,11.2-8.1,12.4c-21.6,4.5-43.6,8.4-65.5,11.6C4081.5,3480.1,4080.9,3480.1,4080.4,3480.1z M3674,3468.8
					c-0.7,0-1.4-0.1-2.1-0.2c-21.6-4.5-43.4-9.6-64.7-15.3c-5.6-1.5-8.9-7.2-7.4-12.8c1.5-5.6,7.2-8.9,12.8-7.4
					c20.9,5.6,42.3,10.6,63.6,15c5.7,1.2,9.3,6.7,8.1,12.4C3683.2,3465.4,3678.8,3468.8,3674,3468.8z M4234.9,3446.3
					c-4.5,0-8.7-3-10-7.5c-1.6-5.5,1.6-11.4,7.1-13c20.8-6.1,41.7-12.9,62.1-20.1c5.4-1.9,11.4,0.9,13.4,6.4
					c1.9,5.4-0.9,11.4-6.4,13.4c-20.8,7.4-42.1,14.3-63.3,20.5C4236.8,3446.1,4235.8,3446.3,4234.9,3446.3z M3521.7,3426.3
					c-1.2,0-2.3-0.2-3.5-0.6c-20.9-7.4-41.8-15.5-62.1-24.1c-5.3-2.2-7.8-8.4-5.6-13.7c2.2-5.3,8.4-7.8,13.7-5.6
					c20,8.4,40.5,16.4,61,23.6c5.4,1.9,8.3,7.9,6.4,13.4C3530,3423.7,3526,3426.3,3521.7,3426.3z M4383.1,3391.6
					c-4,0-7.8-2.3-9.6-6.2c-2.4-5.3,0-11.5,5.3-13.8c19.7-8.9,39.5-18.4,58.7-28.4c5.1-2.7,11.4-0.7,14.1,4.5
					c2.7,5.1,0.7,11.4-4.5,14.1c-19.6,10.2-39.7,19.9-59.8,28.9C4386,3391.3,4384.6,3391.6,4383.1,3391.6z M3376.5,3363.3
					c-1.6,0-3.3-0.4-4.8-1.2c-19.6-10.2-39.2-21.1-58.2-32.3c-5-2.9-6.6-9.4-3.7-14.3c2.9-5,9.4-6.6,14.3-3.7
					c18.7,11.1,37.9,21.8,57.2,31.7c5.1,2.7,7.1,9,4.5,14.1C3383.9,3361.2,3380.3,3363.3,3376.5,3363.3z M4522.5,3317.2
					c-3.5,0-6.9-1.7-8.9-4.9c-3.1-4.9-1.6-11.4,3.3-14.4c18.4-11.5,36.6-23.6,54.3-36.2c4.7-3.3,11.2-2.2,14.6,2.5
					c3.3,4.7,2.2,11.2-2.5,14.6c-18,12.8-36.6,25.1-55.3,36.8C4526.3,3316.7,4524.4,3317.2,4522.5,3317.2z M3241.4,3281
					c-2.1,0-4.2-0.6-6-1.9c-18-12.7-35.9-26.2-53.2-39.9c-4.5-3.6-5.3-10.2-1.7-14.7c3.6-4.5,10.2-5.3,14.7-1.7
					c17,13.5,34.6,26.7,52.3,39.2c4.7,3.3,5.8,9.9,2.5,14.6C3247.9,3279.5,3244.6,3281,3241.4,3281z M4650.5,3224.5
					c-3,0-6-1.3-8-3.8c-3.7-4.4-3.1-11,1.3-14.7c16.7-13.9,33.1-28.4,49-43.2c4.2-3.9,10.8-3.7,14.8,0.5c3.9,4.2,3.7,10.8-0.5,14.8
					c-16.1,15.1-32.9,29.9-49.9,44C4655.2,3223.7,4652.8,3224.5,4650.5,3224.5z M3118.7,3181.2c-2.6,0-5.1-0.9-7.1-2.8
					c-16.1-15.1-32.1-30.8-47.3-46.7c-4-4.2-3.8-10.8,0.3-14.8c4.2-4,10.8-3.8,14.8,0.3c15,15.7,30.6,31.1,46.5,45.9
					c4.2,3.9,4.5,10.6,0.5,14.8C3124.3,3180.1,3121.5,3181.2,3118.7,3181.2z M4764.8,3115.2c-2.5,0-5-0.9-7.1-2.7
					c-4.3-3.9-4.6-10.5-0.7-14.8c14.6-16,29-32.7,42.7-49.5c3.6-4.5,10.2-5.2,14.7-1.5c4.5,3.7,5.2,10.2,1.5,14.7
					c-13.9,17.1-28.6,34.1-43.5,50.4C4770.4,3114.1,4767.6,3115.2,4764.8,3115.2z M3010.7,3065.7c-3,0-6-1.3-8.1-3.9
					c-13.9-17.1-27.6-34.8-40.5-52.7c-3.4-4.7-2.4-11.2,2.3-14.6c4.7-3.4,11.2-2.3,14.6,2.3c12.7,17.5,26.1,35,39.8,51.8
					c3.7,4.5,3,11.1-1.5,14.7C3015.4,3065,3013,3065.7,3010.7,3065.7z M4863.2,2991.5c-2.1,0-4.1-0.6-5.9-1.9
					c-4.8-3.3-6-9.8-2.7-14.6c12.3-17.9,24.3-36.3,35.6-54.8c3-4.9,9.4-6.5,14.4-3.5c4.9,3,6.5,9.4,3.5,14.4
					c-11.5,18.9-23.7,37.6-36.2,55.8C4869.8,2989.9,4866.6,2991.5,4863.2,2991.5z M2919.4,2936.7c-3.5,0-7-1.8-8.9-5
					c-11.5-18.8-22.6-38.2-33-57.7c-2.7-5.1-0.8-11.4,4.3-14.2c5.1-2.7,11.4-0.8,14.2,4.3c10.2,19.1,21.1,38.1,32.4,56.6
					c3,4.9,1.5,11.4-3.5,14.4C2923.1,2936.2,2921.2,2936.7,2919.4,2936.7z M4944,2855.5c-1.6,0-3.2-0.4-4.7-1.1
					c-5.2-2.6-7.2-8.9-4.6-14.1c9.8-19.4,19.1-39.3,27.8-59.2c2.3-5.3,8.5-7.7,13.8-5.4c5.3,2.3,7.7,8.5,5.4,13.8
					c-8.8,20.3-18.3,40.6-28.3,60.3C4951.5,2853.4,4947.8,2855.5,4944,2855.5z M2846.5,2796.6c-4,0-7.9-2.3-9.6-6.3
					c-8.8-20.2-17.1-40.9-24.8-61.6c-2-5.4,0.8-11.4,6.2-13.4c5.4-2,11.4,0.8,13.4,6.2c7.5,20.3,15.7,40.6,24.3,60.5
					c2.3,5.3-0.1,11.5-5.4,13.8C2849.3,2796.3,2847.9,2796.6,2846.5,2796.6z M5005.5,2709.6c-1.1,0-2.3-0.2-3.4-0.6
					c-5.5-1.9-8.4-7.8-6.5-13.3c7-20.5,13.5-41.5,19.4-62.4c1.6-5.6,7.3-8.8,12.9-7.3c5.6,1.6,8.8,7.3,7.3,12.9
					c-5.9,21.3-12.6,42.6-19.7,63.5C5013.9,2706.9,5009.8,2709.6,5005.5,2709.6z M2793.5,2647.8c-4.6,0-8.8-3-10.1-7.6
					c-6-21.2-11.4-43-16.1-64.5c-1.2-5.6,2.3-11.2,8-12.5c5.6-1.2,11.2,2.3,12.5,8c4.7,21.2,10,42.5,15.8,63.4
					c1.6,5.6-1.7,11.3-7.2,12.9C2795.4,2647.6,2794.4,2647.8,2793.5,2647.8z M5046.3,2556.9c-0.7,0-1.3-0.1-2-0.2
					c-5.7-1.1-9.4-6.6-8.3-12.3c4.1-21.3,7.7-42.9,10.6-64.4c0.8-5.7,6.1-9.7,11.8-9c5.7,0.8,9.7,6.1,9,11.8
					c-3,21.9-6.6,44-10.8,65.6C5055.6,2553.4,5051.2,2556.9,5046.3,2556.9z M2761.3,2493c-5.1,0-9.6-3.8-10.4-9
					c-3-21.8-5.4-44.1-7.2-66.1c-0.5-5.8,3.8-10.8,9.6-11.3c5.8-0.5,10.8,3.8,11.3,9.6c1.7,21.6,4.1,43.5,7,64.9
					c0.8,5.7-3.2,11-8.9,11.8C2762.3,2492.9,2761.8,2493,2761.3,2493z M5065.8,2400c-0.2,0-0.4,0-0.6,0c-5.8-0.3-10.2-5.3-9.9-11
					c1.2-21.6,1.8-43.6,1.8-65.3l0-2.3c0-5.8,4.7-10.5,10.4-10.5c0,0,0,0,0,0c5.8,0,10.5,4.7,10.5,10.4l0,2.3
					c0,22.1-0.6,44.5-1.9,66.5C5076,2395.7,5071.4,2400,5065.8,2400z M2750.5,2335.3c-5.8,0-10.5-4.7-10.5-10.4l0-1.2
					c0-21.7,0.6-43.7,1.8-65.3c0.3-5.8,5.3-10.2,11-9.9c5.8,0.3,10.2,5.3,9.9,11c-1.2,21.2-1.8,42.8-1.8,64.2l0,1.1
					C2761,2330.6,2756.3,2335.2,2750.5,2335.3C2750.5,2335.3,2750.5,2335.3,2750.5,2335.3z M5063.9,2239.6c-5.4,0-10-4.1-10.4-9.6
					c-1.7-21.6-4.1-43.5-7.1-64.9c-0.8-5.7,3.2-11,8.9-11.8c5.7-0.8,11,3.2,11.8,8.9c3,21.8,5.4,44.1,7.2,66.1
					c0.5,5.8-3.8,10.8-9.6,11.3C5064.4,2239.6,5064.1,2239.6,5063.9,2239.6z M2761,2177.5c-0.5,0-0.9,0-1.4-0.1
					c-5.7-0.8-9.7-6-9-11.8c3-21.9,6.6-44,10.8-65.6c1.1-5.7,6.6-9.4,12.3-8.3c5.7,1.1,9.4,6.6,8.3,12.3c-4.1,21.3-7.7,43-10.6,64.5
					C2770.7,2173.7,2766.2,2177.5,2761,2177.5z M5040.4,2083.3c-4.8,0-9.1-3.3-10.2-8.2c-4.7-21.2-10-42.5-15.9-63.4
					c-1.6-5.6,1.7-11.3,7.2-12.9c5.6-1.6,11.3,1.7,12.9,7.2c6,21.2,11.4,42.9,16.2,64.5c1.2,5.6-2.3,11.2-8,12.5
					C5041.9,2083.2,5041.2,2083.3,5040.4,2083.3z M2792.9,2022.7c-0.9,0-1.9-0.1-2.8-0.4c-5.6-1.5-8.8-7.3-7.3-12.9
					c5.9-21.3,12.5-42.6,19.7-63.5c1.9-5.5,7.8-8.4,13.3-6.5c5.5,1.9,8.4,7.8,6.5,13.3c-7,20.5-13.5,41.5-19.3,62.4
					C2801.6,2019.6,2797.4,2022.7,2792.9,2022.7z M4995.9,1931.6c-4.3,0-8.3-2.6-9.8-6.8c-7.5-20.3-15.7-40.6-24.4-60.5
					c-2.3-5.3,0.1-11.5,5.4-13.8c5.3-2.3,11.5,0.1,13.8,5.4c8.8,20.2,17.2,40.9,24.8,61.6c2,5.4-0.8,11.4-6.2,13.4
					C4998.3,1931.4,4997.1,1931.6,4995.9,1931.6z M2845.7,1873.6c-1.4,0-2.8-0.3-4.2-0.9c-5.3-2.3-7.7-8.5-5.4-13.8
					c8.8-20.3,18.3-40.6,28.2-60.3c2.6-5.2,8.9-7.2,14.1-4.6c5.2,2.6,7.2,8.9,4.6,14.1c-9.8,19.4-19.1,39.3-27.7,59.2
					C2853.5,1871.2,2849.7,1873.6,2845.7,1873.6z M4931,1787.7c-3.7,0-7.3-2-9.2-5.5c-10.2-19.1-21.1-38.1-32.4-56.6
					c-3-4.9-1.5-11.4,3.5-14.4c4.9-3,11.4-1.5,14.4,3.5c11.5,18.8,22.6,38.2,33,57.6c2.7,5.1,0.8,11.4-4.3,14.2
					C4934.3,1787.3,4932.6,1787.7,4931,1787.7z M2918.4,1733.1c-1.9,0-3.7-0.5-5.4-1.5c-4.9-3-6.5-9.4-3.5-14.4
					c11.5-18.9,23.7-37.7,36.2-55.9c3.3-4.8,9.8-6,14.6-2.7c4.8,3.3,6,9.8,2.7,14.6c-12.3,17.9-24.3,36.3-35.5,54.9
					C2925.4,1731.3,2921.9,1733.1,2918.4,1733.1z M4847,1653.8c-3.2,0-6.4-1.5-8.5-4.3c-12.7-17.5-26.1-34.9-39.9-51.7
					c-3.7-4.5-3-11.1,1.5-14.7c4.5-3.7,11.1-3,14.7,1.5c14,17.1,27.6,34.8,40.6,52.7c3.4,4.7,2.4,11.2-2.3,14.6
					C4851.3,1653.1,4849.1,1653.8,4847,1653.8z M3009.6,1603.8c-2.3,0-4.7-0.8-6.6-2.3c-4.5-3.6-5.2-10.2-1.5-14.7
					c13.9-17.1,28.5-34.1,43.4-50.4c3.9-4.3,10.5-4.6,14.8-0.7c4.3,3.9,4.6,10.5,0.7,14.8c-14.6,16-29,32.7-42.6,49.5
					C3015.7,1602.5,3012.7,1603.8,3009.6,1603.8z M4745.6,1532.5c-2.8,0-5.5-1.1-7.6-3.2c-15-15.7-30.7-31.1-46.5-45.9
					c-4.2-3.9-4.5-10.6-0.5-14.8c3.9-4.2,10.6-4.5,14.8-0.5c16.1,15,32.1,30.8,47.4,46.7c4,4.2,3.9,10.8-0.3,14.8
					C4750.8,1531.6,4748.2,1532.5,4745.6,1532.5z M3117.5,1488.1c-2.8,0-5.6-1.1-7.6-3.3c-3.9-4.2-3.7-10.8,0.5-14.8
					c16.1-15.1,32.9-29.9,49.8-44.1c4.4-3.7,11-3.1,14.7,1.3c3.7,4.4,3.1,11-1.3,14.7c-16.6,13.9-33.1,28.5-48.9,43.3
					C3122.6,1487.2,3120,1488.1,3117.5,1488.1z M4628.7,1426c-2.3,0-4.6-0.7-6.5-2.3c-17-13.5-34.6-26.7-52.3-39.2
					c-4.7-3.3-5.9-9.9-2.5-14.6c3.3-4.7,9.9-5.9,14.6-2.5c18,12.7,36,26.1,53.3,39.9c4.5,3.6,5.3,10.2,1.7,14.7
					C4634.8,1424.7,4631.8,1426,4628.7,1426z M3240,1388.2c-3.3,0-6.5-1.5-8.5-4.4c-3.3-4.7-2.2-11.2,2.5-14.6
					c18-12.8,36.6-25.2,55.3-36.9c4.9-3.1,11.4-1.6,14.4,3.3c3.1,4.9,1.6,11.4-3.3,14.4c-18.3,11.5-36.6,23.7-54.3,36.2
					C3244.2,1387.6,3242,1388.2,3240,1388.2z M4498.4,1336.4c-1.8,0-3.6-0.5-5.3-1.5c-18.7-11.1-37.9-21.7-57.2-31.7
					c-5.1-2.7-7.1-9-4.5-14.1c2.7-5.1,9-7.1,14.1-4.5c19.6,10.2,39.2,21,58.2,32.3c5,2.9,6.6,9.4,3.7,14.3
					C4505.4,1334.5,4502,1336.4,4498.4,1336.4z M3374.8,1305.8c-3.8,0-7.4-2.1-9.3-5.6c-2.7-5.1-0.7-11.4,4.4-14.1
					c19.6-10.2,39.7-19.9,59.8-29c5.3-2.4,11.5,0,13.8,5.2c2.4,5.3,0,11.5-5.2,13.8c-19.7,8.9-39.5,18.5-58.7,28.5
					C3378.1,1305.4,3376.4,1305.8,3374.8,1305.8z M4357,1265.3c-1.3,0-2.7-0.3-4-0.8c-20-8.4-40.6-16.3-61-23.6
					c-5.4-1.9-8.3-7.9-6.4-13.4c1.9-5.4,7.9-8.3,13.4-6.4c20.8,7.4,41.8,15.4,62.2,24c5.3,2.2,7.8,8.4,5.6,13.7
					C4365,1262.9,4361.1,1265.3,4357,1265.3z M3519.5,1242.7c-4.3,0-8.3-2.7-9.9-6.9c-1.9-5.4,0.9-11.4,6.3-13.4
					c20.8-7.4,42.1-14.3,63.3-20.6c5.5-1.6,11.4,1.5,13,7.1c1.6,5.5-1.5,11.4-7.1,13c-20.8,6.1-41.7,12.9-62.1,20.2
					C3521.9,1242.5,3520.7,1242.7,3519.5,1242.7z M4207.3,1214.3c-0.9,0-1.8-0.1-2.7-0.4c-21-5.6-42.3-10.6-63.6-14.9
					c-5.7-1.2-9.3-6.7-8.1-12.4c1.2-5.7,6.7-9.3,12.4-8.1c21.6,4.4,43.4,9.6,64.7,15.2c5.6,1.5,8.9,7.2,7.4,12.8
					C4216.1,1211.2,4211.9,1214.3,4207.3,1214.3z M3671.7,1199.9c-4.9,0-9.2-3.4-10.2-8.3c-1.2-5.7,2.5-11.2,8.1-12.4
					c21.6-4.5,43.6-8.4,65.5-11.7c5.7-0.9,11,3.1,11.9,8.8c0.9,5.7-3.1,11-8.8,11.9c-21.5,3.2-43.1,7.1-64.3,11.5
					C3673.1,1199.8,3672.4,1199.9,3671.7,1199.9z M4052.1,1184.3c-0.4,0-0.9,0-1.3-0.1c-21.5-2.6-43.4-4.7-65-6.1
					c-5.8-0.4-10.1-5.4-9.8-11.1c0.4-5.8,5.3-10.1,11.1-9.8c22.1,1.5,44.3,3.6,66.2,6.2c5.7,0.7,9.8,5.9,9.1,11.7
					C4061.8,1180.4,4057.3,1184.3,4052.1,1184.3z M3828.3,1178.3c-5.5,0-10-4.2-10.4-9.7c-0.4-5.8,4-10.8,9.7-11.2
					c22-1.5,44.3-2.4,66.5-2.7c5.8-0.1,10.5,4.6,10.6,10.3c0.1,5.8-4.6,10.5-10.3,10.6c-21.7,0.3-43.7,1.2-65.3,2.7
					C3828.8,1178.3,3828.6,1178.3,3828.3,1178.3z"/>
			</g>
			<g>
				<g>
					<path class="st1" d="M611.3,732.6h43c6.1,0,11.1,5,11.1,11.1l0,0c0,6.1-5,11.1-11.1,11.1h-43c-6.1,0-11.1-4.9-11.1-11.1
						c0-3.1,1.2-5.8,3.2-7.8C605.5,733.8,608.2,732.6,611.3,732.6z"/>
					<path class="st1" d="M771.8,743.5c0.1,3.1-1.2,6-3.2,8c-2,2-4.8,3.2-7.8,3.2h-43c-6.1,0-11.1-5-11.1-11.1l0,0
						c0-6.1,5-11.1,11.1-11.1h42.7C766.6,732.6,771.7,737.4,771.8,743.5z"/>
					<path class="st1" d="M697.1,668.9v43c0,6.1-5,11.1-11.1,11.1l0,0c-6.1,0-11.1-5-11.1-11.1v-43c0-6.1,5-11.1,11.1-11.1
						c3.1,0,5.8,1.2,7.8,3.2C695.9,663.1,697.1,665.9,697.1,668.9z"/>
					<path class="st1" d="M686,764.4L686,764.4c6.1,0,11.1,5,11.1,11.1v43c0,6.1-5,11.1-11.1,11.1c-3.1,0-5.8-1.2-7.8-3.2
						c-2-2-3.2-4.8-3.2-7.8v-43C675,769.3,679.9,764.4,686,764.4z"/>
				</g>
				<path class="st1" d="M1096.3,298.1c-25.7,0-46.6,20.8-46.6,46.6c0,25.7,20.8,46.6,46.6,46.6s46.6-20.8,46.6-46.6
					C1142.9,318.9,1122,298.1,1096.3,298.1z M1096.3,370.5c-14.3,0-25.9-11.6-25.9-25.9c0-14.3,11.6-25.9,25.9-25.9
					c14.3,0,25.9,11.6,25.9,25.9C1122.2,359,1110.6,370.5,1096.3,370.5z"/>
				<path class="st1" d="M1028.1,2763.9c-25.7,0-46.6,20.8-46.6,46.6c0,25.7,20.8,46.6,46.6,46.6c25.7,0,46.6-20.8,46.6-46.6
					C1074.7,2784.7,1053.8,2763.9,1028.1,2763.9z M1028.1,2836.3c-14.3,0-25.9-11.6-25.9-25.9c0-14.3,11.6-25.9,25.9-25.9
					c14.3,0,25.9,11.6,25.9,25.9C1054,2824.7,1042.4,2836.3,1028.1,2836.3z"/>
				<g>
					<path class="st1" d="M1245,2350.8h26.2c3.7,0,6.7,3,6.7,6.7l0,0c0,3.7-3,6.7-6.7,6.7H1245c-3.7,0-6.7-3-6.7-6.7
						c0-1.9,0.8-3.5,2-4.8C1241.5,2351.5,1243.2,2350.8,1245,2350.8z"/>
					<path class="st1" d="M1342.9,2357.4c0,1.9-0.7,3.6-2,4.9c-1.2,1.2-2.9,2-4.8,2h-26.2c-3.7,0-6.7-3-6.7-6.7l0,0
						c0-3.7,3-6.7,6.7-6.7h26C1339.7,2350.8,1342.8,2353.7,1342.9,2357.4z"/>
					<path class="st1" d="M1297.3,2312v26.2c0,3.7-3,6.7-6.7,6.7l0,0c-3.7,0-6.7-3-6.7-6.7V2312c0-3.7,3-6.7,6.7-6.7
						c1.9,0,3.5,0.8,4.8,2C1296.6,2308.4,1297.3,2310.1,1297.3,2312z"/>
					<path class="st1" d="M1290.6,2370.1L1290.6,2370.1c3.7,0,6.7,3,6.7,6.7v26.2c0,3.7-3,6.7-6.7,6.7c-1.9,0-3.5-0.8-4.8-2
						c-1.2-1.2-2-2.9-2-4.8v-26.2C1283.8,2373.1,1286.8,2370.1,1290.6,2370.1z"/>
				</g>
				<path class="st1" d="M4299.6,1544.9c-25.7,0-46.6,20.8-46.6,46.6s20.8,46.6,46.6,46.6c25.7,0,46.6-20.8,46.6-46.6
					S4325.3,1544.9,4299.6,1544.9z M4299.6,1617.3c-14.3,0-25.9-11.6-25.9-25.9c0-14.3,11.6-25.9,25.9-25.9
					c14.3,0,25.9,11.6,25.9,25.9C4325.4,1605.7,4313.9,1617.3,4299.6,1617.3z"/>
				<g>
					<path class="st1" d="M4490.3,1909.8h32.3c4.6,0,8.3,3.7,8.3,8.3l0,0c0,4.6-3.7,8.3-8.3,8.3h-32.3c-4.6,0-8.3-3.7-8.3-8.3
						c0-2.3,0.9-4.4,2.4-5.9C4486,1910.8,4488,1909.8,4490.3,1909.8z"/>
					<path class="st1" d="M4611.1,1918c0,2.4-0.9,4.5-2.4,6c-1.5,1.5-3.6,2.4-5.9,2.4h-32.3c-4.6,0-8.3-3.7-8.3-8.3l0,0
						c0-4.6,3.7-8.3,8.3-8.3h32.1C4607.1,1909.8,4611,1913.4,4611.1,1918z"/>
					<path class="st1" d="M4554.9,1861.9v32.3c0,4.6-3.7,8.3-8.3,8.3h0c-4.6,0-8.3-3.7-8.3-8.3v-32.3c0-4.6,3.7-8.3,8.3-8.3
						c2.3,0,4.4,0.9,5.9,2.4C4553.9,1857.6,4554.9,1859.6,4554.9,1861.9z"/>
					<path class="st1" d="M4546.6,1933.7L4546.6,1933.7c4.6,0,8.3,3.7,8.3,8.3v32.3c0,4.6-3.7,8.3-8.3,8.3c-2.3,0-4.4-0.9-5.9-2.4
						c-1.5-1.5-2.4-3.6-2.4-5.9V1942C4538.2,1937.4,4542,1933.7,4546.6,1933.7z"/>
				</g>
				<g>
					<path class="st1" d="M4165.3,3775.9h32.3c4.6,0,8.3,3.7,8.3,8.3l0,0c0,4.6-3.7,8.3-8.3,8.3h-32.3c-4.6,0-8.3-3.7-8.3-8.3
						c0-2.3,0.9-4.4,2.4-5.9S4163,3775.9,4165.3,3775.9z"/>
					<path class="st1" d="M4286,3784.1c0,2.4-0.9,4.5-2.4,6c-1.5,1.5-3.6,2.4-5.9,2.4h-32.3c-4.6,0-8.3-3.7-8.3-8.3l0,0
						c0-4.6,3.7-8.3,8.3-8.3h32.1C4282.1,3775.9,4286,3779.5,4286,3784.1z"/>
					<path class="st1" d="M4229.8,3728v32.3c0,4.6-3.7,8.3-8.3,8.3l0,0c-4.6,0-8.3-3.7-8.3-8.3V3728c0-4.6,3.7-8.3,8.3-8.3
						c2.3,0,4.4,0.9,5.9,2.4C4228.9,3723.6,4229.8,3725.7,4229.8,3728z"/>
					<path class="st1" d="M4221.5,3799.8L4221.5,3799.8c4.6,0,8.3,3.7,8.3,8.3v32.3c0,4.6-3.7,8.3-8.3,8.3c-2.3,0-4.4-0.9-5.9-2.4
						c-1.5-1.5-2.4-3.6-2.4-5.9v-32.3C4213.2,3803.5,4216.9,3799.8,4221.5,3799.8z"/>
				</g>
				<path class="st1" d="M3123.2,110c-43.7,0-79.2,35.4-79.2,79.2c0,43.7,35.4,79.2,79.2,79.2c43.7,0,79.2-35.4,79.2-79.2
					C3202.4,145.4,3166.9,110,3123.2,110z M3123.2,233.2c-24.3,0-44-19.7-44-44c0-24.3,19.7-44,44-44c24.3,0,44,19.7,44,44
					C3167.2,213.5,3147.5,233.2,3123.2,233.2z"/>
				<g>
					<path class="st1" d="M3628.3,641h55c7.8,0,14.1,6.3,14.1,14.1l0,0c0,7.8-6.3,14.1-14.1,14.1h-55c-7.8,0-14.1-6.3-14.1-14.1
						c0-3.9,1.6-7.4,4.1-10C3620.9,642.6,3624.4,641,3628.3,641z"/>
					<path class="st1" d="M3833.6,654.9c0.1,4-1.5,7.6-4.1,10.2c-2.6,2.6-6.1,4.1-10,4.1h-55c-7.8,0-14.1-6.3-14.1-14.1l0,0
						c0-7.8,6.3-14.1,14.1-14.1h54.6C3826.9,641,3833.5,647.1,3833.6,654.9z"/>
					<path class="st1" d="M3738,559.5v55c0,7.8-6.3,14.1-14.1,14.1l0,0c-7.8,0-14.1-6.3-14.1-14.1v-55c0-7.8,6.3-14.1,14.1-14.1
						c3.9,0,7.4,1.6,10,4.1C3736.4,552.1,3738,555.6,3738,559.5z"/>
					<path class="st1" d="M3723.9,681.6L3723.9,681.6c7.8,0,14.1,6.3,14.1,14.1v55c0,7.8-6.3,14.1-14.2,14.1c-3.9,0-7.4-1.6-10-4.1
						c-2.6-2.6-4.1-6.1-4.1-10v-55C3709.7,687.9,3716.1,681.6,3723.9,681.6z"/>
				</g>
				<g>
					<path class="st1" d="M4774.1,1698.9c-21.8,0-43.8-1.9-65.3-5.7c-4.3-0.7-7.1-4.8-6.4-9.1c0.7-4.3,4.8-7.1,9.1-6.4
						c20.6,3.6,41.7,5.4,62.6,5.4l1.1,0c0,0,0,0,0,0c4.3,0,7.8,3.5,7.8,7.8c0,4.3-3.5,7.9-7.8,7.9L4774.1,1698.9z M4865.8,1687.4
						c-3.5,0-6.7-2.4-7.6-5.9c-1.1-4.2,1.5-8.5,5.7-9.5c20.6-5.2,40.9-12.3,60.4-21.1c4-1.8,8.6,0,10.4,3.9c1.8,4,0,8.6-3.9,10.4
						c-20.3,9.1-41.5,16.5-63,22C4867.1,1687.3,4866.4,1687.4,4865.8,1687.4z M4622.6,1666.9c-1.1,0-2.1-0.2-3.2-0.7
						c-20.4-9-40-19.8-58.5-32.1c-3.6-2.4-4.6-7.3-2.2-10.9c2.4-3.6,7.3-4.6,10.9-2.2c17.7,11.8,36.5,22.2,56.1,30.8
						c4,1.7,5.8,6.4,4,10.3C4628.5,1665.1,4625.6,1666.9,4622.6,1666.9z M5005.6,1618.6c-2.3,0-4.6-1-6.2-3c-2.7-3.4-2.1-8.3,1.3-11
						c16.8-13.2,32.5-27.9,46.7-43.7c2.9-3.2,7.9-3.5,11.1-0.6c3.2,2.9,3.5,7.9,0.6,11.1c-14.8,16.5-31.2,31.9-48.7,45.6
						C5009,1618.1,5007.3,1618.6,5005.6,1618.6z M4496.2,1575.7c-2.1,0-4.3-0.9-5.8-2.6c-14.9-16.5-28.4-34.3-40.3-53.2
						c-2.3-3.7-1.2-8.5,2.5-10.8c3.7-2.3,8.5-1.2,10.8,2.5c11.4,18.1,24.3,35.2,38.6,51c2.9,3.2,2.7,8.2-0.6,11.1
						C4500,1575.1,4498.1,1575.7,4496.2,1575.7z M5105.4,1499c-1.2,0-2.5-0.3-3.6-0.9c-3.8-2-5.3-6.8-3.3-10.6
						c9.9-18.8,18.2-38.6,24.8-59l0.2-0.5c1.3-4.1,5.7-6.4,9.9-5.1c4.1,1.3,6.4,5.7,5.1,9.9l-0.2,0.5c-6.8,21.2-15.5,41.9-25.8,61.5
						C5111,1497.4,5108.3,1499,5105.4,1499z M4417.9,1441c-3.3,0-6.4-2.1-7.5-5.4c-7-21.1-12.1-43-15.3-64.9
						c-0.6-4.3,2.4-8.3,6.6-8.9c4.3-0.6,8.3,2.4,8.9,6.6c3.1,21,8,42,14.7,62.2c1.4,4.1-0.9,8.6-5,9.9
						C4419.5,1440.9,4418.7,1441,4417.9,1441z M5148,1348.5c-0.2,0-0.4,0-0.5,0c-4.3-0.3-7.6-4-7.3-8.4c0.5-8,0.8-16.1,0.8-24.1
						c0-13.3-0.7-26.6-2.2-39.8c-0.5-4.3,2.6-8.2,6.9-8.7c4.3-0.5,8.2,2.6,8.7,6.9c1.5,13.7,2.3,27.7,2.3,41.5
						c0,8.4-0.3,16.8-0.8,25.1C5155.6,1345.3,5152.1,1348.5,5148,1348.5z M4401,1286.1c-0.3,0-0.5,0-0.8,0c-4.3-0.4-7.5-4.3-7-8.6
						c2.3-22,6.5-44.1,12.6-65.5c1.2-4.2,5.5-6.6,9.7-5.4c4.2,1.2,6.6,5.5,5.4,9.7c-5.8,20.6-9.9,41.7-12,62.8
						C4408.4,1283.1,4405,1286.1,4401,1286.1z M5125.6,1194.3c-3.2,0-6.2-2-7.4-5.1c-7.4-20-16.6-39.4-27.3-57.9
						c-2.2-3.7-0.9-8.6,2.8-10.7c3.7-2.2,8.5-0.9,10.7,2.8c11.2,19.2,20.8,39.5,28.4,60.3c1.5,4.1-0.6,8.6-4.6,10.1
						C5127.4,1194.2,5126.5,1194.3,5125.6,1194.3z M4448.6,1137.7c-1.3,0-2.7-0.3-3.9-1c-3.8-2.1-5.1-6.9-2.9-10.7
						c11-19.3,23.8-37.7,38-54.8c2.8-3.3,7.7-3.8,11.1-1c3.3,2.8,3.8,7.7,1,11.1c-13.6,16.4-25.9,34-36.5,52.5
						C4454,1136.3,4451.3,1137.7,4448.6,1137.7z M5042.5,1062.5c-2,0-4.1-0.8-5.6-2.4c-14.9-15.3-31.2-29.3-48.4-41.8
						c-3.5-2.5-4.3-7.4-1.8-11c2.5-3.5,7.4-4.3,11-1.8c18,13,35,27.6,50.5,43.6c3,3.1,2.9,8.1-0.2,11.1
						C5046.5,1061.7,5044.5,1062.5,5042.5,1062.5z M4552.5,1021.6c-2.4,0-4.8-1.1-6.3-3.2c-2.6-3.5-1.8-8.4,1.7-11
						c17.9-13.1,37.1-24.7,57-34.5c3.9-1.9,8.6-0.3,10.5,3.6c1.9,3.9,0.3,8.6-3.6,10.5c-19.1,9.4-37.5,20.6-54.7,33.1
						C4555.7,1021.1,4554.1,1021.6,4552.5,1021.6z M4913,975.9c-1,0-1.9-0.2-2.9-0.6c-7.8-3.1-15.8-6-23.7-8.5
						c-12.3-4-24.9-7.3-37.5-9.9c-4.2-0.9-7-5.1-6.1-9.3c0.9-4.2,5.1-7,9.3-6.1c13.1,2.7,26.3,6.2,39.1,10.4
						c8.3,2.7,16.7,5.7,24.7,8.9c4,1.6,6,6.2,4.4,10.2C4919,974,4916.1,975.9,4913,975.9z M4694.6,957.6c-3.6,0-6.9-2.5-7.7-6.2
						c-0.9-4.2,1.8-8.4,6-9.3c21.7-4.7,44-7.6,66.2-8.4c4.3-0.2,8,3.2,8.1,7.5c0.2,4.3-3.2,8-7.5,8.1c-21.3,0.8-42.6,3.5-63.4,8.1
						C4695.7,957.5,4695.2,957.6,4694.6,957.6z"/>
				</g>
				<g>
					<path class="st1" d="M891.1,2136.2c-10.7,0-21.5-0.3-32.2-1c-4.3-0.3-7.6-4-7.3-8.3c0.3-4.3,4-7.6,8.3-7.3
						c10.4,0.6,20.9,1,31.3,1c10.5,0,21.2-0.3,31.7-1c4.3-0.3,8.1,3,8.3,7.3c0.3,4.3-3,8.1-7.3,8.3
						C912.9,2135.9,901.9,2136.2,891.1,2136.2z M770.8,2121.9c-0.6,0-1.2-0.1-1.9-0.2c-12.6-3-25.3-6.6-37.7-10.6
						c-8.2-2.6-16.4-5.5-24.4-8.5c-4.1-1.5-6.1-6.1-4.6-10.1c1.5-4.1,6.1-6.1,10.1-4.6c7.8,2.9,15.7,5.7,23.7,8.2
						c12,3.9,24.3,7.3,36.6,10.3c4.2,1,6.8,5.3,5.8,9.5C777.6,2119.4,774.3,2121.9,770.8,2121.9z M1011.7,2121.7
						c-3.5,0-6.7-2.4-7.6-6c-1-4.2,1.6-8.5,5.8-9.5c20.3-4.9,40.6-11.2,60.2-18.6c4.1-1.5,8.6,0.5,10.1,4.6
						c1.5,4.1-0.5,8.6-4.6,10.1c-20.2,7.7-41.1,14.1-62,19.2C1013,2121.7,1012.3,2121.7,1011.7,2121.7z M629,2064.4
						c-1.4,0-2.7-0.4-4-1.1c-18.6-11-36.7-23.3-53.7-36.5c-3.4-2.7-4-7.6-1.4-11c2.7-3.4,7.6-4,11-1.4
						c16.5,12.8,34.1,24.8,52.1,35.4c3.7,2.2,5,7,2.8,10.8C634.2,2063,631.6,2064.4,629,2064.4z M1153.4,2063.9
						c-2.7,0-5.3-1.4-6.8-3.8c-2.2-3.7-1-8.5,2.7-10.8c18-10.7,35.5-22.6,52.1-35.5c3.4-2.7,8.4-2,11,1.4c2.7,3.4,2,8.4-1.4,11
						c-17,13.2-35.1,25.5-53.7,36.6C1156.2,2063.6,1154.8,2063.9,1153.4,2063.9z M510.4,1967.5c-2.1,0-4.3-0.9-5.8-2.6
						c-14.5-16-28.1-33.1-40.5-50.8c-2.5-3.6-1.6-8.4,1.9-10.9c3.5-2.5,8.4-1.6,10.9,1.9c12,17.2,25.2,33.7,39.3,49.3
						c2.9,3.2,2.7,8.2-0.6,11.1C514.2,1966.8,512.3,1967.5,510.4,1967.5z M1271.9,1967c-1.9,0-3.8-0.7-5.3-2
						c-3.2-2.9-3.5-7.9-0.6-11.1c14.1-15.5,27.3-32.1,39.3-49.3c2.5-3.6,7.4-4.4,10.9-1.9c3.6,2.5,4.4,7.4,1.9,10.9
						c-12.4,17.7-26,34.8-40.5,50.8C1276.2,1966.2,1274.1,1967,1271.9,1967z M425.7,1840c-3,0-5.8-1.7-7.1-4.5
						c-9.1-19.6-17.2-39.9-23.8-60.4c-1.3-4.1,0.9-8.5,5-9.9c4.1-1.3,8.5,0.9,9.9,5c6.5,19.9,14.2,39.6,23.1,58.6
						c1.8,3.9,0.1,8.6-3.8,10.4C428,1839.7,426.8,1840,425.7,1840z M1356.5,1839.4c-1.1,0-2.2-0.2-3.3-0.7
						c-3.9-1.8-5.6-6.5-3.8-10.4c8.8-18.9,16.5-38.7,22.9-58.7l0.2-0.6c1.3-4.1,5.7-6.4,9.9-5.1c4.1,1.3,6.4,5.7,5.1,9.9l-0.2,0.7
						c-6.6,20.6-14.6,41-23.6,60.5C1362.3,1837.7,1359.4,1839.4,1356.5,1839.4z M382.2,1693.3c-3.9,0-7.2-2.8-7.8-6.8
						c-3-21.4-4.6-43.2-4.9-64.7c-0.1-4.3,3.4-7.9,7.7-8c4.3-0.1,7.9,3.4,8,7.7c0.3,20.9,1.9,42,4.8,62.8c0.6,4.3-2.4,8.3-6.7,8.9
						C382.9,1693.2,382.6,1693.3,382.2,1693.3z M1399.8,1691.9c-0.4,0-0.7,0-1.1-0.1c-4.3-0.6-7.3-4.6-6.7-8.8
						c2.9-20.8,4.4-41.9,4.7-62.8c0-4.3,3.6-7.8,7.8-7.8c0,0,0.1,0,0.1,0c4.3,0,7.8,3.6,7.8,7.9c-0.2,21.6-1.9,43.4-4.8,64.8
						C1407.1,1689.1,1403.7,1691.9,1399.8,1691.9z M384,1540.2c-0.4,0-0.8,0-1.3-0.1c-4.3-0.7-7.2-4.7-6.5-9
						c3.5-21.2,8.3-42.5,14.4-63.3c1.2-4.2,5.6-6.5,9.7-5.3c4.2,1.2,6.5,5.6,5.3,9.7c-5.9,20.2-10.6,40.8-14,61.4
						C391.1,1537.5,387.8,1540.2,384,1540.2z M1397.7,1538.9c-3.8,0-7.1-2.7-7.7-6.6c-3.4-20.6-8.2-41.3-14.2-61.4
						c-1.2-4.2,1.1-8.5,5.3-9.8c4.2-1.2,8.5,1.1,9.8,5.3c6.2,20.7,11.1,42,14.6,63.3c0.7,4.3-2.2,8.3-6.5,9
						C1398.5,1538.8,1398.1,1538.9,1397.7,1538.9z M430.8,1394.5c-1.2,0-2.4-0.3-3.5-0.8c-3.9-1.9-5.5-6.6-3.6-10.5
						c9.6-19.4,20.5-38.4,32.4-56.4c2.4-3.6,7.3-4.6,10.9-2.2c3.6,2.4,4.6,7.3,2.2,10.9c-11.5,17.5-22.1,35.8-31.4,54.6
						C436.4,1392.9,433.7,1394.5,430.8,1394.5z M1350.4,1393.3c-2.9,0-5.7-1.6-7-4.3c-9.4-18.7-20-37.1-31.6-54.5
						c-2.4-3.6-1.4-8.5,2.2-10.9c3.6-2.4,8.5-1.4,10.9,2.2c11.9,18,22.9,36.9,32.5,56.2c1.9,3.9,0.4,8.6-3.5,10.5
						C1352.8,1393.1,1351.6,1393.3,1350.4,1393.3z M518.4,1269c-1.9,0-3.9-0.7-5.4-2.2c-3.1-3-3.3-8-0.3-11.1
						c14.9-15.6,30.9-30.5,47.6-44.2c3.4-2.7,8.3-2.3,11,1.1c2.7,3.4,2.3,8.3-1.1,11c-16.2,13.3-31.8,27.7-46.2,42.9
						C522.6,1268.1,520.5,1269,518.4,1269z M1262.5,1268c-2.1,0-4.1-0.8-5.7-2.4c-14.5-15.2-30-29.6-46.2-42.8
						c-3.4-2.7-3.9-7.7-1.1-11c2.7-3.4,7.7-3.9,11-1.1c16.7,13.6,32.8,28.5,47.7,44.2c3,3.1,2.9,8.1-0.3,11.1
						C1266.4,1267.3,1264.5,1268,1262.5,1268z M639.3,1175c-2.7,0-5.4-1.4-6.8-4c-2.1-3.8-0.8-8.6,3-10.7
						c18.8-10.6,38.5-20.1,58.5-28.3c4-1.6,8.6,0.3,10.2,4.3c1.6,4-0.3,8.6-4.3,10.2c-19.4,7.9-38.5,17.1-56.7,27.4
						C641.9,1174.7,640.6,1175,639.3,1175z M1141.5,1174.2c-1.3,0-2.6-0.3-3.8-1c-18.2-10.2-37.4-19.3-56.8-27.2
						c-4-1.6-6-6.2-4.3-10.2c1.6-4,6.2-6,10.2-4.3c20.1,8.1,39.8,17.5,58.6,28c3.8,2.1,5.1,6.9,3,10.7
						C1146.9,1172.8,1144.3,1174.2,1141.5,1174.2z M782.3,1120.6c-3.6,0-6.9-2.5-7.7-6.2c-0.9-4.2,1.8-8.4,6-9.3
						c21.1-4.6,42.7-7.9,64.2-9.8c4.3-0.4,8.1,2.8,8.5,7.1c0.4,4.3-2.8,8.1-7.1,8.5c-20.8,1.9-41.8,5.1-62.2,9.5
						C783.4,1120.5,782.8,1120.6,782.3,1120.6z M998.3,1120.4c-0.5,0-1.1-0.1-1.7-0.2c-20.5-4.4-41.5-7.6-62.3-9.4
						c-4.3-0.4-7.5-4.2-7.1-8.5c0.4-4.3,4.2-7.5,8.5-7.1c21.5,1.9,43.1,5.1,64.2,9.7c4.2,0.9,6.9,5.1,6,9.3
						C1005.1,1117.8,1001.9,1120.4,998.3,1120.4z"/>
				</g>
			</g>
		</g>
	</g>
	<g>
		<g>
			<g>
				<path class="st2" d="M3991.7,1481.2l-57,353.8l-10.9,67.9c0,52.6-112.3,745.1-170.5,745.1l-919.9-635.6l-1021,708.4
					c-58.2,0-119.3-745.2-119.3-797.8l-4.1-87.9l-16.3-352.7l164.1-141.8L2767.7,536c38.4-27.6,92.8-27.6,131.2,0l930,804.4
					L3991.7,1481.2z"/>
			</g>
			<g>
				<g>
					<polygon class="st1" points="3550.2,1479 3550.2,2560.9 2109,2560.9 2109,1166.6 3234.6,1166.6 3550.2,1479 					"/>
				</g>
				<g>
					<polygon class="st2" points="3550.2,1479 3550.2,1515.5 3198.1,1515.5 3198.1,1165.3 3234.6,1166.6 					"/>
				</g>
				<g>
					<polygon class="st1" points="3550.2,1479 3234.6,1479 3234.6,1166.6 					"/>
				</g>
			</g>
			<g>
				<path class="st3" d="M2855.7,2218.7l527.6-538.2c138.6-141.3,336.3-222.1,543.9-222.1l0,0c48.7,0,88.3,32.1,88.3,71.7v733.3
					v705.2c0,39.6-65.9,99.8-114.6,99.8H3601l-745.3-760.3C2830.8,2282.7,2830.8,2244.2,2855.7,2218.7z"/>
			</g>
			<g>
				<path class="st3" d="M2810.9,2217.8l-527.6-538.2c-138.6-141.3-336.3-222.1-543.9-222.1h0c-48.7,0-88.3,32.1-88.3,71.7v733.3
					v713.9c0,39.6,56.6,92.1,105.3,92.1l309.1-1l745.3-760.3C2835.8,2281.7,2835.8,2243.2,2810.9,2217.8z"/>
			</g>
			<g>
				<path class="st0" d="M4015.5,2674.2v310.2c0,46.4-47.2,84-105.3,84H1756.4c-58.2,0-105.3-37.6-105.3-84v-310.2l1116.5-708.9
					c18.2-11.5,39.9-17.6,61.9-18.2c24.4-0.7,49.1,5.4,69.3,18.2L4015.5,2674.2z"/>
			</g>
			<g>
				<g>
					<g>
						<polygon class="st2" points="1651.1,2544.9 2622.8,2025.9 2641.8,2045.2 1651.1,2674.2 						"/>
					</g>
				</g>
			</g>
			<g>
				<g>
					<g>
						<polygon class="st2" points="4015.5,2544.9 3043.8,2025.9 3024.8,2045.2 4015.5,2674.2 						"/>
					</g>
				</g>
			</g>
			<g>
				<g>
					<path class="st0" d="M2829.6,1624c-113.1,0-204.7,91.7-204.7,204.7h409.5C3034.3,1715.7,2942.7,1624,2829.6,1624z"/>
				</g>
				<g>
					<circle class="st0" cx="2829.6" cy="1502.6" r="105.9"/>
				</g>
			</g>
		</g>
	</g>
</g>
</svg>
