<?xml version="1.0" encoding="utf-8"?>
<!-- Generator: Adobe Illustrator 24.0.1, SVG Export Plug-In . SVG Version: 6.00 Build 0)  -->
<svg version="1.1" xmlns="http://www.w3.org/2000/svg" xmlns:xlink="http://www.w3.org/1999/xlink" x="0px" y="0px"
	 viewBox="0 0 500 500" style="enable-background:new 0 0 500 500;" xml:space="preserve">
<style type="text/css">
	.st0{fill:#0A0A0A;}
	.st1{fill:#C3A079;}
	.st2{fill:#FFFFFF;stroke:#C3A079;stroke-linecap:round;stroke-linejoin:round;stroke-miterlimit:10;}
	.st3{fill:none;stroke:#C3A079;stroke-linecap:round;stroke-linejoin:round;stroke-miterlimit:10;}
	.st4{fill:#C3A079;stroke:#C3A079;stroke-miterlimit:10;}
	.st5{fill:none;stroke:#C3A079;stroke-width:3;stroke-linecap:round;stroke-linejoin:round;stroke-miterlimit:10;}
	.st6{fill:none;stroke:#C3A079;stroke-width:5;stroke-linecap:round;stroke-linejoin:round;stroke-miterlimit:10;}
	.st7{fill:#C3A079;stroke:#C3A079;stroke-linecap:round;stroke-linejoin:round;stroke-miterlimit:10;}
	.st8{fill:#FFFFFF;stroke:#C3A079;stroke-miterlimit:10;}
	.st9{fill:#FFFFFF;stroke:#263238;stroke-miterlimit:10;}
	.st10{fill:none;stroke:#FFFFFF;stroke-width:2;stroke-miterlimit:10;}
	.st11{fill:#FFFFFF;}
	.st12{fill:#C3A079;stroke:#000000;stroke-miterlimit:10;}
	.st13{fill:#7D7D7D;}
	.st14{fill:#BFBFBF;}
	.st15{fill:#7D7D7D;stroke:#000000;stroke-miterlimit:10;}
	.st16{fill:none;stroke:#000000;stroke-miterlimit:10;}
	.st17{fill:#BDBDBD;stroke:#0A0A0A;stroke-miterlimit:10;}
	.st18{fill:#6B6B6B;stroke:#0A0A0A;stroke-miterlimit:10;}
	.st19{fill:#C3A079;stroke:#0A0A0A;stroke-linecap:round;stroke-linejoin:round;stroke-miterlimit:10;}
	.st20{fill:#C3A079;stroke:#263238;stroke-linecap:round;stroke-linejoin:round;stroke-miterlimit:10;}
	.st21{fill:none;stroke:#FFFFFF;stroke-miterlimit:10;}
	.st22{fill:#FFFFFF;stroke:#0A0A0A;stroke-linecap:round;stroke-linejoin:round;stroke-miterlimit:10;}
	.st23{fill:#0A0A0A;stroke:#0A0A0A;stroke-linecap:round;stroke-linejoin:round;stroke-miterlimit:10;}
	.st24{fill:none;stroke:#0A0A0A;stroke-width:2;stroke-linecap:round;stroke-linejoin:round;stroke-miterlimit:10;}
	.st25{fill:none;stroke:#0A0A0A;stroke-linecap:round;stroke-linejoin:round;stroke-miterlimit:10;}
	.st26{fill:none;stroke:#263238;stroke-linecap:round;stroke-linejoin:round;stroke-miterlimit:10;}
	.st27{fill:#FFFFFF;stroke:#263238;stroke-linecap:round;stroke-linejoin:round;stroke-miterlimit:10;}
	.st28{fill:none;stroke:#FFFFFF;stroke-linecap:round;stroke-linejoin:round;stroke-miterlimit:10;}
	.st29{fill:none;stroke:#0A0A0A;stroke-miterlimit:10;}
</style>
<g id="Background_Simple">
	<g>
		<path class="st0" d="M467.6,251.9c-4.9,41.8-24,90.4-62.1,112.7c-57.6,33.7-52.8,85.6-165.2,108.2c-17.5,3.5-34.2,5-49.8,4.7
			c-8.4-0.2-16.6-0.8-24.5-2C94.5,465.1,46.4,415.5,28.8,355.5C5.6,276.7,51.9,225,82.7,193.9c30.7-31.1,53.2-128,163.6-151.1
			c16.8-3.5,34-5.3,51.2-4.9c39.3,1,82.1,13.9,111.7,40.8c2.2,2,4.4,4.1,6.5,6.3C456.8,127.3,474.3,194.9,467.6,251.9z"/>
		<path class="st0" d="M467.6,251.9c-4.9,41.8-24,90.4-62.1,112.7c-57.6,33.7-52.8,85.6-165.2,108.2c-17.5,3.5-34.2,5-49.8,4.7
			c-8.4-0.2-16.6-0.8-24.5-2C94.5,465.1,46.4,415.5,28.8,355.5C5.6,276.7,51.9,225,82.7,193.9c30.7-31.1,53.2-128,163.6-151.1
			c16.8-3.5,34-5.3,51.2-4.9c39.3,1,82.1,13.9,111.7,40.8c2.2,2,4.4,4.1,6.5,6.3C456.8,127.3,474.3,194.9,467.6,251.9z"/>
	</g>
</g>
<g id="Icon_6">
	<g>
		<path class="st1" d="M457.9,341.5h-36.6c-2.6,0-4.7-2.1-4.7-4.7v-50.4c0-2.6,2.1-4.7,4.7-4.7h36.6c2.6,0,4.7,2.1,4.7,4.7v50.4
			C462.5,339.4,460.5,341.5,457.9,341.5z"/>
		<g>
			<rect x="418.8" y="286.9" class="st2" width="41.6" height="51.7"/>
			<line class="st3" x1="431.1" y1="293.3" x2="448" y2="293.3"/>
			<line class="st3" x1="423.1" y1="300.5" x2="456.1" y2="300.5"/>
			<line class="st3" x1="423.1" y1="306.2" x2="456.1" y2="306.2"/>
			<line class="st3" x1="423.1" y1="312" x2="456.1" y2="312"/>
			<line class="st3" x1="423.1" y1="317.7" x2="456.1" y2="317.7"/>
			<line class="st3" x1="423.1" y1="323.4" x2="456.1" y2="323.4"/>
			<line class="st3" x1="423.1" y1="329.1" x2="456.1" y2="329.1"/>
		</g>
		<path class="st2" d="M446.4,280.9c-1.2,0-1.8-1.3-1.2-2.3c0.7-1,0.9-2.3,0.7-3.7c-0.4-2-2-3.7-4-4.1c-3.4-0.7-6.3,1.8-6.3,5.1
			c0,1,0.3,2,0.8,2.8c0.6,1-0.1,2.2-1.3,2.2h-9l2.4,7H453l2.4-7H446.4z M440.8,277.9c-1,0-1.8-0.8-1.8-1.8c0-1,0.8-1.8,1.8-1.8
			c1,0,1.8,0.8,1.8,1.8C442.6,277.1,441.8,277.9,440.8,277.9z"/>
		<g>
			<path class="st2" d="M426,297.7c-9.2-2.7-14.6-8.9-15.8-10.5c-1.3,1.6-6.6,7.8-15.8,10.5c0,0-0.6,16.9,15.8,32.4
				C426.5,314.6,426,297.7,426,297.7z"/>
			<path class="st4" d="M423.2,299.6c-7.6-2.2-12-7.3-13.1-8.7c-1,1.3-5.5,6.4-13.1,8.7c0,0-0.5,13.9,13.1,26.7
				C423.7,313.5,423.2,299.6,423.2,299.6z"/>
			<path class="st2" d="M423.2,299.6c-7.6-2.2-12-7.3-13.1-8.7v35.4C423.7,313.5,423.2,299.6,423.2,299.6z"/>
		</g>
	</g>
</g>
<g id="Icon_5">
	<g>
		<path class="st5" d="M373.7,173.9l5.3,0.6l25.2,43.6c1.1,2.5,3.6,4.2,6.3,4.2l0,0c3,0,5.6-1.9,6.5-4.7l3-16.7l39.9,12.2
			l-14.5-27.4"/>
		<line class="st6" x1="362.7" y1="172.6" x2="373.7" y2="173.9"/>
		<polygon class="st7" points="440.3,204.2 397.3,204.2 388.9,173.8 455.9,173.8 		"/>
		<polygon class="st8" points="453.7,178 455.9,173.8 388.9,173.8 390.1,178 		"/>
		<ellipse transform="matrix(0.7071 -0.7071 0.7071 0.7071 -15.864 387.7093)" class="st7" cx="460.1" cy="213" rx="9.9" ry="9.9"/>
		<path class="st8" d="M465.6,213c0-3.1-2.5-5.5-5.5-5.5c-3.1,0-5.5,2.5-5.5,5.5s2.5,5.5,5.5,5.5C463.1,218.5,465.6,216.1,465.6,213
			z"/>
		<path class="st1" d="M446.5,171.5c-4-3.3-15.8-12.9-21.1-14.5c-5.6-1.7-25.2,11.2-30.1,14.5H446.5z"/>
	</g>
</g>
<g id="Icon_4">
	<g>
		<path class="st8" d="M416.2,50l-31.3-0.8l-1.9-6.8c0,0-0.7-0.6-1.3,0.4c-0.7,1-5.5,7-5.5,7s-0.4,1-0.2,1.7s4.6,44,4.6,44l3.2-0.9
			l1.2-40.1l26.9,4.5C411.9,59,414,53.1,416.2,50z"/>
		<path class="st8" d="M416.2,50c0,0-12,12.9-10.4,36.9h49.4l-1.8-13.4l-17-2.7v-19L416.2,50z"/>
		<path class="st4" d="M416.2,50c0,0-10.6,11.4-10.6,32.7h22.1l8.6-11.9v-19L416.2,50z"/>
		<path class="st8" d="M417.8,54.2c-2.9,4.5-5.4,14.6-5.4,14.6h14.9V54.9L417.8,54.2z"/>
		<polygon class="st8" points="430.1,54.4 430.1,67.8 435,63.8 435,54.2 		"/>
		<rect x="444.8" y="83.3" class="st1" width="8.7" height="1.3"/>
		<rect x="444.8" y="80.5" class="st1" width="8.7" height="1.3"/>
		<rect x="444.8" y="77.7" class="st1" width="8.7" height="1.3"/>
		<polyline class="st9" points="436,89 418.9,89 416,89.7 418.1,92.2 434.5,92.2 436,89.7 		"/>
		<rect x="405.1" y="86.2" class="st8" width="52.5" height="4.7"/>
		<path class="st4" d="M446.8,91.9h-31.2c-5.6,0-10.1,4.5-10.1,10.1c0,5.6,4.5,10.1,10.1,10.1h31.2c5.6,0,10.1-4.5,10.1-10.1
			C456.9,96.4,452.3,91.9,446.8,91.9z"/>
		<circle class="st8" cx="446.8" cy="102" r="6.6"/>
		<path class="st4" d="M451,102c0-2.3-1.9-4.2-4.2-4.2s-4.2,1.9-4.2,4.2c0,2.3,1.9,4.2,4.2,4.2S451,104.4,451,102z"/>
		<circle class="st8" cx="415.5" cy="102" r="6.6"/>
		<path class="st4" d="M419.7,102c0-2.3-1.9-4.2-4.2-4.2c-2.3,0-4.2,1.9-4.2,4.2c0,2.3,1.9,4.2,4.2,4.2
			C417.8,106.2,419.7,104.4,419.7,102z"/>
		<path class="st8" d="M443.6,106.4l-26.1-0.7c-2-0.1-3.7-1.7-3.7-3.8l0,0c0-2,1.6-3.7,3.7-3.8l26.1-0.7c2.1-0.1,3.9,1.6,3.9,3.8
			v1.4C447.4,104.7,445.7,106.4,443.6,106.4z"/>
		<path class="st4" d="M381.9,92.3l-5.6,9.9c0,0,7.4,7.7,13.2,9.4c5.8,1.7,12.4,0.2,12.4,0.2v-0.9l-4.1-0.2l-2-14.1L381.9,92.3z"/>
	</g>
</g>
<g id="Icon_3">
	<g>
		<g>
			<polygon class="st8" points="101.9,90.7 87.2,80.4 83.1,80.7 79,80.4 64.3,90.7 62,100.5 83.1,100.5 104.2,100.5 			"/>
			<polygon class="st8" points="69.3,100.5 83.1,100.5 97.2,100.5 97.2,87.4 87.2,80.4 83.1,80.7 79,80.4 69.3,87.2 			"/>
			<polygon class="st4" points="87.6,81.8 83,93.3 78.2,81.8 78.2,73.3 87.6,73.3 			"/>
			<path class="st8" d="M78.8,54.4l2.2,1.9v-3.8h3.2v3.9l1.8-1.8c0,0,1.1,0.4,2.3,1.2c1.5,1,2.4,3.6,2.7,5.3
				c0.1,0.3,0.5,0.2,0.5,0.2v2.4c0,0-4.6,1-10,0.9c-3.8-0.1-7.5-1.2-7.5-1.2v-2.4h0.9C74.8,60.9,74.8,55.1,78.8,54.4z"/>
			<path class="st4" d="M81.4,65.9c-2.5-0.1-4.9-0.5-6.2-0.9c-0.1,0.5-0.1,1.1-0.1,1.6c0,9.2,3.4,11.7,7.6,11.7
				c4.2,0,7.6-3.2,7.6-11.7c0-0.5,0-0.9-0.1-1.4C88.3,65.5,85,65.9,81.4,65.9z"/>
			<polygon class="st8" points="78.2,79.2 75,82.4 81.1,89.4 82.9,82.1 			"/>
			<polygon class="st8" points="88.2,79.2 91.4,82.4 85.2,89.4 83.5,82.1 			"/>
		</g>
		<g>
			<polygon class="st8" points="130.6,100.7 115.9,90.4 111.9,90.7 107.8,90.4 93.1,100.7 90.7,110.6 111.9,110.6 133,110.6 			"/>
			<polygon class="st8" points="98.1,110.6 111.9,110.6 125.9,110.6 125.9,97.4 115.9,90.4 111.9,90.7 107.8,90.4 98.1,97.2 			"/>
			<polygon class="st4" points="116.3,91.8 111.8,103.3 107,91.8 107,83.3 116.3,83.3 			"/>
			<path class="st8" d="M107.5,64.4l2.2,1.9v-3.8h3.2v3.9l1.8-1.8c0,0,1.1,0.4,2.3,1.2c1.5,1,2.4,3.6,2.7,5.3
				c0.1,0.3,0.5,0.2,0.5,0.2v2.4c0,0-4.6,1-10,0.9c-3.8-0.1-7.5-1.2-7.5-1.2v-2.4h0.9C103.6,70.9,103.6,65.2,107.5,64.4z"/>
			<path class="st4" d="M110.2,75.9c-2.5-0.1-4.9-0.5-6.2-0.9c-0.1,0.5-0.1,1.1-0.1,1.6c0,9.2,3.4,11.7,7.6,11.7s7.6-3.2,7.6-11.7
				c0-0.5,0-0.9-0.1-1.4C117,75.5,113.8,76,110.2,75.9z"/>
			<polygon class="st8" points="107,89.2 103.7,92.4 109.9,99.5 111.6,92.1 			"/>
			<polygon class="st8" points="116.9,89.2 120.2,92.4 114,99.5 112.2,92.1 			"/>
		</g>
		<g>
			<polygon class="st8" points="74.2,100.7 59.5,90.4 55.4,90.7 51.3,90.4 36.7,100.7 34.3,110.6 55.4,110.6 76.5,110.6 			"/>
			<polygon class="st8" points="41.6,110.6 55.4,110.6 69.5,110.6 69.5,97.4 59.5,90.4 55.4,90.7 51.3,90.4 41.6,97.2 			"/>
			<polygon class="st4" points="59.9,91.8 55.4,103.3 50.5,91.8 50.5,83.3 59.9,83.3 			"/>
			<path class="st8" d="M51.1,64.4l2.2,1.9v-3.8h3.2v3.9l1.8-1.8c0,0,1.1,0.4,2.3,1.2c1.5,1,2.4,3.6,2.7,5.3
				c0.1,0.3,0.5,0.2,0.5,0.2v2.4c0,0-4.6,1-10,0.9c-3.8-0.1-7.5-1.2-7.5-1.2v-2.4h0.9C47.2,70.9,47.1,65.2,51.1,64.4z"/>
			<path class="st4" d="M53.7,75.9c-2.5-0.1-4.9-0.5-6.2-0.9c-0.1,0.5-0.1,1.1-0.1,1.6c0,9.2,3.4,11.7,7.6,11.7s7.6-3.2,7.6-11.7
				c0-0.5,0-0.9-0.1-1.4C60.6,75.5,57.4,76,53.7,75.9z"/>
			<polygon class="st8" points="50.5,89.2 47.3,92.4 53.5,99.5 55.2,92.1 			"/>
			<polygon class="st8" points="60.5,89.2 63.7,92.4 57.6,99.5 55.8,92.1 			"/>
		</g>
	</g>
</g>
<g id="Icon_2">
	<g>
		<path class="st1" d="M105,199.5h-5.7v-14.3h5.7c1.8,0,3.3,1.5,3.3,3.3v7.7C108.3,198.1,106.8,199.5,105,199.5z"/>
		<g>
			<ellipse class="st1" cx="72.1" cy="192.8" rx="30.1" ry="27.9"/>
			<path class="st10" d="M82.5,170.7c-3.2-1.3-6.7-2-10.4-2c-3.3,0-6.5,0.6-9.4,1.6"/>
			<path class="st1" d="M42.1,199.5h5.7v-14.3h-5.7c-1.8,0-3.3,1.5-3.3,3.3v7.7C38.8,198.1,40.3,199.5,42.1,199.5z"/>
			<path class="st1" d="M68.4,225.9h-8.8c-0.7,0-1.2-0.6-1.2-1.2v-9.3h11.3v9.3C69.6,225.4,69.1,225.9,68.4,225.9z"/>
			<path class="st1" d="M85,225.9h-8.8c-0.7,0-1.2-0.6-1.2-1.2v-9.3h11.3v9.3C86.2,225.4,85.6,225.9,85,225.9z"/>
			<path class="st1" d="M88.7,170.9c0,0,13.6-8.3,13.6-3.8s-3,18.1-3,18.1"/>
			<g>
				
					<ellipse transform="matrix(0.7071 -0.7071 0.7071 0.7071 -114.9229 107.9628)" class="st11" cx="72.9" cy="192.7" rx="19" ry="19"/>
				<g>
					<path class="st1" d="M72.5,208.4v-3c-2.1-0.1-3.7-0.8-4.8-2c-1.1-1.3-1.6-3.2-1.7-5.8l4.7-0.7c0,1.1,0.1,1.9,0.3,2.6
						c0.2,0.7,0.4,1.1,0.7,1.4c0.3,0.3,0.7,0.4,1.2,0.4c0.6,0,0.9-0.2,1.1-0.6c0.2-0.4,0.3-0.8,0.3-1.2c0-1-0.2-1.9-0.7-2.6
						c-0.5-0.7-1.1-1.4-2-2.1l-2.2-1.9c-0.6-0.6-1.2-1.1-1.7-1.7c-0.5-0.6-0.9-1.3-1.2-2c-0.3-0.8-0.5-1.7-0.5-2.8
						c0-1.9,0.6-3.5,1.7-4.6c1.1-1.1,2.6-1.7,4.5-1.9v-2.9h1.6v2.9c1.2,0.1,2.1,0.3,2.9,0.8c0.7,0.5,1.3,1.1,1.6,1.8
						c0.4,0.7,0.6,1.5,0.7,2.2c0.1,0.8,0.2,1.5,0.2,2.2l-4.8,0.6c0-0.7-0.1-1.4-0.1-1.9c-0.1-0.6-0.2-1-0.4-1.3
						c-0.2-0.3-0.6-0.4-1-0.4c-0.5,0-0.9,0.2-1.1,0.6c-0.2,0.4-0.4,0.9-0.4,1.3c0,1,0.3,1.8,0.8,2.4c0.5,0.6,1.1,1.2,1.6,1.7
						l2.1,1.8c0.7,0.6,1.3,1.3,1.9,2c0.6,0.7,1.1,1.5,1.4,2.4c0.3,0.9,0.5,1.9,0.5,3c0,1.1-0.2,2.1-0.7,3c-0.5,0.9-1.1,1.6-1.9,2.2
						c-0.8,0.6-1.8,0.9-3,1v3.1H72.5z"/>
				</g>
			</g>
		</g>
	</g>
</g>
<g id="Icon_1">
	<g>
		<path class="st1" d="M96.8,341.5H60.2c-2.6,0-4.7-2.1-4.7-4.7v-50.4c0-2.6,2.1-4.7,4.7-4.7h36.6c2.6,0,4.7,2.1,4.7,4.7v50.4
			C101.5,339.4,99.4,341.5,96.8,341.5z"/>
		<g>
			<rect x="57.7" y="286.9" class="st2" width="41.6" height="51.7"/>
			<line class="st3" x1="70.1" y1="293.3" x2="86.9" y2="293.3"/>
			<line class="st3" x1="62" y1="300.5" x2="95" y2="300.5"/>
			<line class="st3" x1="62" y1="306.2" x2="95" y2="306.2"/>
			<line class="st3" x1="62" y1="312" x2="95" y2="312"/>
			<line class="st3" x1="62" y1="317.7" x2="95" y2="317.7"/>
			<line class="st3" x1="62" y1="323.4" x2="95" y2="323.4"/>
			<line class="st3" x1="62" y1="329.1" x2="95" y2="329.1"/>
		</g>
		<path class="st2" d="M85.3,280.9c-1.2,0-1.8-1.3-1.2-2.3c0.7-1,0.9-2.3,0.7-3.7c-0.4-2-2-3.7-4-4.1c-3.4-0.7-6.3,1.8-6.3,5.1
			c0,1,0.3,2,0.8,2.8c0.6,1-0.1,2.2-1.3,2.2h-9l2.4,7h24.4l2.4-7H85.3z M79.7,277.9c-1,0-1.8-0.8-1.8-1.8c0-1,0.8-1.8,1.8-1.8
			c1,0,1.8,0.8,1.8,1.8C81.5,277.1,80.7,277.9,79.7,277.9z"/>
		<g>
			
				<ellipse transform="matrix(0.7071 -0.7071 0.7071 0.7071 -203.1835 123.3323)" class="st1" cx="47.3" cy="306.9" rx="20.1" ry="20.1"/>
			<g>
				<path class="st11" d="M46.9,323.5v-3.2c-2.2-0.1-3.9-0.8-5-2.2c-1.1-1.3-1.7-3.4-1.8-6.2l5-0.7c0,1.1,0.1,2,0.3,2.7
					c0.2,0.7,0.4,1.2,0.8,1.5c0.3,0.3,0.7,0.5,1.2,0.5c0.6,0,1-0.2,1.2-0.6c0.2-0.4,0.3-0.8,0.3-1.3c0-1.1-0.3-2-0.8-2.7
					c-0.5-0.7-1.2-1.5-2.1-2.3l-2.3-2c-0.6-0.6-1.2-1.2-1.8-1.8c-0.5-0.6-1-1.3-1.3-2.1c-0.3-0.8-0.5-1.8-0.5-2.9
					c0-2.1,0.6-3.7,1.8-4.8c1.2-1.2,2.8-1.8,4.8-2v-3.1h1.7v3.1c1.3,0.1,2.3,0.4,3,0.9s1.3,1.1,1.7,1.9c0.4,0.7,0.6,1.5,0.8,2.4
					c0.1,0.8,0.2,1.6,0.2,2.3l-5,0.6c0-0.8-0.1-1.5-0.1-2c-0.1-0.6-0.2-1-0.5-1.3c-0.2-0.3-0.6-0.5-1.1-0.4c-0.5,0-0.9,0.2-1.2,0.7
					c-0.3,0.5-0.4,0.9-0.4,1.4c0,1,0.3,1.9,0.8,2.5c0.5,0.6,1.1,1.2,1.7,1.8l2.2,1.9c0.7,0.7,1.4,1.4,2,2.1c0.6,0.8,1.1,1.6,1.5,2.5
					c0.4,0.9,0.6,2,0.6,3.2c0,1.1-0.2,2.2-0.7,3.1c-0.5,1-1.2,1.7-2,2.3c-0.9,0.6-1.9,1-3.2,1.1v3.2H46.9z"/>
			</g>
		</g>
	</g>
</g>
<g id="Calculator">
	<g>
		<path id="XMLID_1_" class="st9" d="M332.9,118.8h-80.8h-12.2h-80.8c-5.7,0-10.8,2.4-14.3,6.3c-4,3.7-6.4,9.1-6.1,15l3.7,80v214.5
			c0,9.7,7.9,17.6,17.6,17.6h74.8h20.6h74.8c5.1,0,9.7-2.2,12.9-5.7c3.5-3.2,5.7-7.8,5.7-12.9V219.1l3.7-80
			C352.9,128,344,118.8,332.9,118.8z"/>
		<path class="st12" d="M339.2,216.7l3.4-74.7c0.3-6.8-5.1-12.4-11.9-12.4H161.3c-6.8,0-12.2,5.7-11.9,12.4l3.4,74.7H339.2z"/>
		<rect x="159.4" y="149" class="st13" width="172.4" height="58.3"/>
		<rect x="167.9" y="157.5" class="st14" width="155.4" height="41.3"/>
		<g>
			<path class="st15" d="M241.7,265.9h-77.1c-2.7,0-5-2.2-5-5v-15.6c0-2.7,2.2-5,5-5h77.1c2.7,0,5,2.2,5,5v15.6
				C246.7,263.7,244.5,265.9,241.7,265.9z"/>
			<line class="st16" x1="178" y1="240.7" x2="178" y2="265.9"/>
			<line class="st16" x1="195.5" y1="240.7" x2="195.5" y2="265.9"/>
			<line class="st16" x1="213.1" y1="240.7" x2="213.1" y2="265.9"/>
			<line class="st16" x1="230.6" y1="240.7" x2="230.6" y2="265.9"/>
		</g>
		<g>
			<path class="st17" d="M295.2,274.4h-21.7c-2.6,0-4.6-2.1-4.6-4.6V259c0-2.6,2.1-4.6,4.6-4.6h21.7c2.6,0,4.6,2.1,4.6,4.6v10.8
				C299.8,272.4,297.7,274.4,295.2,274.4z"/>
			<path class="st17" d="M186.6,305.6h-21.7c-2.6,0-4.6-2.1-4.6-4.6v-14.3c0-2.6,2.1-4.6,4.6-4.6h21.7c2.6,0,4.6,2.1,4.6,4.6V301
				C191.2,303.6,189.1,305.6,186.6,305.6z"/>
			<path class="st17" d="M222.8,305.6h-21.7c-2.6,0-4.6-2.1-4.6-4.6v-14.3c0-2.6,2.1-4.6,4.6-4.6h21.7c2.6,0,4.6,2.1,4.6,4.6V301
				C227.5,303.6,225.4,305.6,222.8,305.6z"/>
			<path class="st17" d="M259.1,305.6h-21.7c-2.6,0-4.6-2.1-4.6-4.6v-14.3c0-2.6,2.1-4.6,4.6-4.6h21.7c2.6,0,4.6,2.1,4.6,4.6V301
				C263.8,303.6,261.7,305.6,259.1,305.6z"/>
			<path class="st17" d="M295.4,305.6h-21.7c-2.6,0-4.6-2.1-4.6-4.6v-14.3c0-2.6,2.1-4.6,4.6-4.6h21.7c2.6,0,4.6,2.1,4.6,4.6V301
				C300,303.6,298,305.6,295.4,305.6z"/>
			<path class="st17" d="M331.7,305.6H310c-2.6,0-4.6-2.1-4.6-4.6v-14.3c0-2.6,2.1-4.6,4.6-4.6h21.7c2.6,0,4.6,2.1,4.6,4.6V301
				C336.3,303.6,334.2,305.6,331.7,305.6z"/>
			<path class="st17" d="M186.6,337.4h-21.7c-2.6,0-4.6-2.1-4.6-4.6v-14.3c0-2.6,2.1-4.6,4.6-4.6h21.7c2.6,0,4.6,2.1,4.6,4.6v14.3
				C191.2,335.3,189.1,337.4,186.6,337.4z"/>
			<path class="st18" d="M222.8,337.4h-21.7c-2.6,0-4.6-2.1-4.6-4.6v-14.3c0-2.6,2.1-4.6,4.6-4.6h21.7c2.6,0,4.6,2.1,4.6,4.6v14.3
				C227.5,335.3,225.4,337.4,222.8,337.4z"/>
			<path class="st18" d="M259.1,337.4h-21.7c-2.6,0-4.6-2.1-4.6-4.6v-14.3c0-2.6,2.1-4.6,4.6-4.6h21.7c2.6,0,4.6,2.1,4.6,4.6v14.3
				C263.8,335.3,261.7,337.4,259.1,337.4z"/>
			<path class="st18" d="M295.4,337.4h-21.7c-2.6,0-4.6-2.1-4.6-4.6v-14.3c0-2.6,2.1-4.6,4.6-4.6h21.7c2.6,0,4.6,2.1,4.6,4.6v14.3
				C300,335.3,298,337.4,295.4,337.4z"/>
			<path class="st17" d="M331.7,337.4H310c-2.6,0-4.6-2.1-4.6-4.6v-14.3c0-2.6,2.1-4.6,4.6-4.6h21.7c2.6,0,4.6,2.1,4.6,4.6v14.3
				C336.3,335.3,334.2,337.4,331.7,337.4z"/>
			<path class="st17" d="M186.6,369.1h-21.7c-2.6,0-4.6-2.1-4.6-4.6v-14.3c0-2.6,2.1-4.6,4.6-4.6h21.7c2.6,0,4.6,2.1,4.6,4.6v14.3
				C191.2,367,189.1,369.1,186.6,369.1z"/>
			<path class="st18" d="M222.8,369.1h-21.7c-2.6,0-4.6-2.1-4.6-4.6v-14.3c0-2.6,2.1-4.6,4.6-4.6h21.7c2.6,0,4.6,2.1,4.6,4.6v14.3
				C227.5,367,225.4,369.1,222.8,369.1z"/>
			<path class="st18" d="M259.1,369.1h-21.7c-2.6,0-4.6-2.1-4.6-4.6v-14.3c0-2.6,2.1-4.6,4.6-4.6h21.7c2.6,0,4.6,2.1,4.6,4.6v14.3
				C263.8,367,261.7,369.1,259.1,369.1z"/>
			<path class="st18" d="M295.4,369.1h-21.7c-2.6,0-4.6-2.1-4.6-4.6v-14.3c0-2.6,2.1-4.6,4.6-4.6h21.7c2.6,0,4.6,2.1,4.6,4.6v14.3
				C300,367,298,369.1,295.4,369.1z"/>
			<path class="st17" d="M331.7,369.1H310c-2.6,0-4.6-2.1-4.6-4.6v-14.3c0-2.6,2.1-4.6,4.6-4.6h21.7c2.6,0,4.6,2.1,4.6,4.6v14.3
				C336.3,367,334.2,369.1,331.7,369.1z"/>
			<path class="st19" d="M186.6,400.8h-21.7c-2.6,0-4.6-2.1-4.6-4.6v-14.3c0-2.6,2.1-4.6,4.6-4.6h21.7c2.6,0,4.6,2.1,4.6,4.6v14.3
				C191.2,398.7,189.1,400.8,186.6,400.8z"/>
			<path class="st18" d="M222.8,400.8h-21.7c-2.6,0-4.6-2.1-4.6-4.6v-14.3c0-2.6,2.1-4.6,4.6-4.6h21.7c2.6,0,4.6,2.1,4.6,4.6v14.3
				C227.5,398.7,225.4,400.8,222.8,400.8z"/>
			<path class="st18" d="M259.1,400.8h-21.7c-2.6,0-4.6-2.1-4.6-4.6v-14.3c0-2.6,2.1-4.6,4.6-4.6h21.7c2.6,0,4.6,2.1,4.6,4.6v14.3
				C263.8,398.7,261.7,400.8,259.1,400.8z"/>
			<path class="st18" d="M295.4,400.8h-21.7c-2.6,0-4.6-2.1-4.6-4.6v-14.3c0-2.6,2.1-4.6,4.6-4.6h21.7c2.6,0,4.6,2.1,4.6,4.6v14.3
				C300,398.7,298,400.8,295.4,400.8z"/>
			<path class="st19" d="M186.6,432.5h-21.7c-2.6,0-4.6-2.1-4.6-4.6v-14.3c0-2.6,2.1-4.6,4.6-4.6h21.7c2.6,0,4.6,2.1,4.6,4.6v14.3
				C191.2,430.4,189.1,432.5,186.6,432.5z"/>
			<path class="st18" d="M222.8,432.5h-21.7c-2.6,0-4.6-2.1-4.6-4.6v-14.3c0-2.6,2.1-4.6,4.6-4.6h21.7c2.6,0,4.6,2.1,4.6,4.6v14.3
				C227.5,430.4,225.4,432.5,222.8,432.5z"/>
			<path class="st18" d="M259.1,432.5h-21.7c-2.6,0-4.6-2.1-4.6-4.6v-14.3c0-2.6,2.1-4.6,4.6-4.6h21.7c2.6,0,4.6,2.1,4.6,4.6v14.3
				C263.8,430.4,261.7,432.5,259.1,432.5z"/>
			<path class="st17" d="M295.4,432.5h-21.7c-2.6,0-4.6-2.1-4.6-4.6v-14.3c0-2.6,2.1-4.6,4.6-4.6h21.7c2.6,0,4.6,2.1,4.6,4.6v14.3
				C300,430.4,298,432.5,295.4,432.5z"/>
			<path class="st17" d="M331.6,377.2h-21.6c-2.6,0-4.7,2.1-4.7,4.7v6.6v7.6v31.7c0,2.6,2.1,4.7,4.7,4.7h21.6c2.6,0,4.7-2.1,4.7-4.7
				v-31.7v-7.6v-6.6C336.3,379.3,334.2,377.2,331.6,377.2z"/>
			<path class="st20" d="M331.7,274.4H310c-2.6,0-4.6-2.1-4.6-4.6V259c0-2.6,2.1-4.6,4.6-4.6h21.7c2.6,0,4.6,2.1,4.6,4.6v10.8
				C336.3,272.4,334.2,274.4,331.7,274.4z"/>
			<g>
				<g>
					<path class="st11" d="M311.3,269.4c-0.9-1-1.4-2.4-1.4-4.2c0-1.8,0.5-3.2,1.4-4.2c0.9-1,2.2-1.6,3.9-1.6c1.6,0,2.9,0.5,3.9,1.6
						c0.9,1,1.4,2.4,1.4,4.2c0,1.8-0.5,3.2-1.4,4.2c-0.9,1-2.2,1.6-3.9,1.6C313.6,270.9,312.3,270.4,311.3,269.4z M317.9,268.5
						c0.6-0.8,1-1.9,1-3.3c0-1.4-0.3-2.5-1-3.3c-0.6-0.8-1.5-1.2-2.7-1.2c-1.2,0-2,0.4-2.7,1.2c-0.6,0.8-1,1.9-1,3.3
						c0,1.4,0.3,2.5,1,3.3c0.6,0.8,1.5,1.2,2.7,1.2C316.4,269.7,317.3,269.3,317.9,268.5z"/>
					<path class="st11" d="M323.1,270.6c-0.1-0.1-0.2-0.3-0.2-0.5v-9.5c0-0.3,0.1-0.6,0.3-0.7c0.2-0.2,0.4-0.3,0.6-0.3
						c0.2,0,0.4,0.1,0.6,0.2c0.2,0.1,0.4,0.3,0.5,0.5l5.7,8.3v-8.2c0-0.2,0.1-0.4,0.2-0.5c0.1-0.1,0.3-0.2,0.5-0.2
						c0.2,0,0.4,0.1,0.5,0.2c0.1,0.1,0.2,0.3,0.2,0.5v9.5c0,0.3-0.1,0.6-0.3,0.7c-0.2,0.2-0.4,0.3-0.7,0.3c-0.2,0-0.4,0-0.5-0.1
						c-0.2-0.1-0.3-0.2-0.4-0.4l-5.7-8.3v8.1c0,0.2-0.1,0.4-0.2,0.5c-0.1,0.1-0.3,0.2-0.5,0.2C323.4,270.8,323.2,270.7,323.1,270.6z
						"/>
				</g>
				<g>
					<path class="st11" d="M169.9,300.3c-0.2-0.1-0.3-0.3-0.4-0.5l-3.7-8.2v8.5c0,0.2-0.1,0.3-0.2,0.4c-0.1,0.1-0.3,0.1-0.5,0.1
						c-0.2,0-0.4,0-0.5-0.1c-0.1-0.1-0.2-0.2-0.2-0.4v-9.3c0-0.3,0.1-0.6,0.4-0.8s0.5-0.3,0.8-0.3c0.3,0,0.5,0.1,0.7,0.2
						c0.2,0.2,0.4,0.4,0.6,0.7l3.6,7.9l3.6-7.9c0.1-0.3,0.3-0.5,0.6-0.7c0.2-0.2,0.5-0.2,0.7-0.2c0.3,0,0.6,0.1,0.8,0.3
						c0.2,0.2,0.4,0.5,0.4,0.8v9.3c0,0.2-0.1,0.3-0.2,0.4c-0.1,0.1-0.3,0.1-0.5,0.1c-0.2,0-0.4,0-0.5-0.1c-0.1-0.1-0.2-0.2-0.2-0.4
						v-8.5l-3.7,8.2c-0.1,0.2-0.2,0.4-0.4,0.5c-0.2,0.1-0.4,0.2-0.5,0.2C170.2,300.5,170,300.4,169.9,300.3z"/>
					<path class="st11" d="M181.3,300.2c-0.8-0.5-1.4-1.2-1.8-2.1c-0.4-0.9-0.6-1.8-0.6-2.9c0-0.8,0.1-1.6,0.4-2.3
						c0.2-0.7,0.6-1.3,1-1.8c0.4-0.5,1-0.9,1.7-1.2c0.7-0.3,1.4-0.5,2.2-0.5c1,0,2,0.2,2.8,0.7c0.2,0.1,0.3,0.3,0.3,0.5
						c0,0.2-0.1,0.3-0.2,0.4c-0.1,0.1-0.3,0.2-0.4,0.2c-0.1,0-0.2,0-0.3-0.1c0,0-0.1,0-0.2-0.1c-0.1-0.1-0.2-0.1-0.3-0.1
						c-0.1,0-0.2-0.1-0.3-0.1c-0.1,0-0.3-0.1-0.4-0.1c-0.1,0-0.3-0.1-0.5-0.1s-0.4,0-0.6,0c-0.5,0-1,0.1-1.4,0.2
						c-0.4,0.2-0.8,0.4-1,0.7c-0.3,0.3-0.5,0.6-0.7,1c-0.2,0.4-0.3,0.8-0.4,1.2c-0.1,0.4-0.1,0.9-0.1,1.4s0,1,0.1,1.4
						c0.1,0.4,0.2,0.8,0.4,1.2c0.2,0.4,0.4,0.7,0.7,1c0.3,0.3,0.6,0.5,1.1,0.6c0.4,0.2,0.9,0.2,1.4,0.2c0.5,0,0.9-0.1,1.2-0.2
						c0.4-0.1,0.7-0.3,1.1-0.5c0.1-0.1,0.2-0.1,0.3-0.1c0.2,0,0.3,0.1,0.4,0.2c0.1,0.1,0.2,0.3,0.2,0.4c0,0.2-0.1,0.4-0.4,0.6
						c-0.9,0.6-1.9,0.9-3.1,0.9C183,300.9,182,300.7,181.3,300.2z"/>
				</g>
				<g>
					<path class="st11" d="M173.2,423.8h-5.4l-0.9,2.4c-0.1,0.3-0.4,0.5-0.7,0.5c-0.2,0-0.4-0.1-0.5-0.2c-0.2-0.1-0.2-0.3-0.2-0.5
						c0-0.1,0-0.2,0.1-0.3l3.7-9.3c0.2-0.4,0.4-0.7,0.6-0.9c0.2-0.1,0.5-0.2,0.8-0.2c0.3,0,0.6,0.1,0.8,0.2c0.2,0.1,0.4,0.4,0.6,0.9
						l3.7,9.3c0,0.1,0.1,0.2,0.1,0.3c0,0.2-0.1,0.4-0.2,0.5c-0.2,0.1-0.3,0.2-0.5,0.2c-0.4,0-0.6-0.2-0.7-0.5L173.2,423.8z
						 M170.5,416.9l-2.3,5.8h4.5L170.5,416.9z"/>
					<path class="st11" d="M179.5,426.1c-0.8-0.5-1.4-1.2-1.8-2.1c-0.4-0.9-0.6-1.8-0.6-2.9c0-0.8,0.1-1.6,0.4-2.3
						c0.2-0.7,0.6-1.3,1-1.8c0.4-0.5,1-0.9,1.7-1.2c0.7-0.3,1.4-0.5,2.2-0.5c1,0,2,0.2,2.8,0.7c0.2,0.1,0.3,0.3,0.3,0.5
						c0,0.2-0.1,0.3-0.2,0.4c-0.1,0.1-0.3,0.2-0.4,0.2c-0.1,0-0.2,0-0.3-0.1c0,0-0.1,0-0.2-0.1c-0.1-0.1-0.2-0.1-0.3-0.1
						c-0.1,0-0.2-0.1-0.3-0.1c-0.1,0-0.3-0.1-0.4-0.1c-0.1,0-0.3-0.1-0.5-0.1c-0.2,0-0.4,0-0.6,0c-0.5,0-1,0.1-1.4,0.2
						c-0.4,0.2-0.8,0.4-1,0.7c-0.3,0.3-0.5,0.6-0.7,1c-0.2,0.4-0.3,0.8-0.4,1.2c-0.1,0.4-0.1,0.9-0.1,1.4c0,0.5,0,1,0.1,1.4
						c0.1,0.4,0.2,0.8,0.4,1.2c0.2,0.4,0.4,0.7,0.7,1c0.3,0.3,0.6,0.5,1.1,0.6c0.4,0.2,0.9,0.2,1.4,0.2c0.5,0,0.9-0.1,1.2-0.2
						c0.4-0.1,0.7-0.3,1.1-0.5c0.1-0.1,0.2-0.1,0.3-0.1c0.2,0,0.3,0.1,0.4,0.2c0.1,0.1,0.2,0.3,0.2,0.4c0,0.2-0.1,0.4-0.4,0.6
						c-0.9,0.6-1.9,0.9-3.1,0.9C181.2,426.8,180.3,426.6,179.5,426.1z"/>
				</g>
				<g>
					<path class="st11" d="M173.3,394.1c-0.8-0.5-1.4-1.2-1.8-2.1c-0.4-0.9-0.6-1.8-0.6-2.9c0-0.8,0.1-1.6,0.4-2.3
						c0.2-0.7,0.6-1.3,1-1.8c0.4-0.5,1-0.9,1.7-1.2c0.7-0.3,1.4-0.5,2.2-0.5c1,0,2,0.2,2.8,0.7c0.2,0.1,0.3,0.3,0.3,0.5
						c0,0.2-0.1,0.3-0.2,0.4c-0.1,0.1-0.3,0.2-0.4,0.2c-0.1,0-0.2,0-0.3-0.1c0,0-0.1,0-0.2-0.1c-0.1-0.1-0.2-0.1-0.3-0.1
						c-0.1,0-0.2-0.1-0.3-0.1c-0.1,0-0.3-0.1-0.4-0.1c-0.1,0-0.3-0.1-0.5-0.1c-0.2,0-0.4,0-0.6,0c-0.5,0-1,0.1-1.4,0.2
						c-0.4,0.2-0.8,0.4-1,0.7c-0.3,0.3-0.5,0.6-0.7,1c-0.2,0.4-0.3,0.8-0.4,1.2c-0.1,0.4-0.1,0.9-0.1,1.4c0,0.5,0,1,0.1,1.4
						c0.1,0.4,0.2,0.8,0.4,1.2c0.2,0.4,0.4,0.7,0.7,1c0.3,0.3,0.6,0.5,1.1,0.6c0.4,0.2,0.9,0.2,1.4,0.2c0.5,0,0.9-0.1,1.2-0.2
						c0.4-0.1,0.7-0.3,1.1-0.5c0.1-0.1,0.2-0.1,0.3-0.1c0.2,0,0.3,0.1,0.4,0.2c0.1,0.1,0.2,0.3,0.2,0.4c0,0.2-0.1,0.4-0.4,0.6
						c-0.9,0.6-1.9,0.9-3.1,0.9C175,394.8,174.1,394.6,173.3,394.1z"/>
				</g>
				<g>
					<path class="st11" d="M169.3,326c-0.5-0.6-0.7-1.3-0.7-2.2c0-0.9,0.2-1.6,0.7-2.2c0.5-0.6,1.1-0.9,1.9-0.9
						c0.5,0,0.9,0.1,1.2,0.3c0.4,0.2,0.6,0.4,0.8,0.7c0.2,0.3,0.4,0.6,0.5,1c0.1,0.4,0.2,0.7,0.2,1.1c0,0.9-0.2,1.6-0.7,2.2
						c-0.5,0.6-1.1,0.9-2,0.9C170.4,326.8,169.8,326.6,169.3,326z M172.2,325.6c0.2-0.2,0.4-0.5,0.5-0.8c0.1-0.3,0.1-0.7,0.1-1.1
						c0-0.4,0-0.8-0.1-1.1c-0.1-0.3-0.3-0.6-0.5-0.8c-0.2-0.2-0.5-0.3-0.9-0.3c-0.3,0-0.6,0.1-0.9,0.3c-0.2,0.2-0.4,0.5-0.5,0.8
						c-0.1,0.3-0.1,0.7-0.1,1.1c0,0.4,0,0.8,0.1,1.1c0.1,0.3,0.3,0.6,0.5,0.8c0.2,0.2,0.5,0.3,0.9,0.3
						C171.6,326,171.9,325.9,172.2,325.6z M171.4,332.2c-0.1-0.1-0.1-0.2-0.1-0.3c0-0.1,0-0.2,0.1-0.3l6.1-10.8
						c0.1-0.2,0.3-0.3,0.5-0.3c0.1,0,0.2,0,0.3,0.1c0.1,0.1,0.1,0.2,0.1,0.3c0,0.1,0,0.2-0.1,0.3l-6.1,10.8
						c-0.1,0.2-0.3,0.3-0.4,0.3C171.6,332.4,171.5,332.3,171.4,332.2z M176.9,331.2c-0.5-0.6-0.7-1.3-0.7-2.2c0-0.9,0.2-1.6,0.7-2.2
						c0.5-0.6,1.1-0.9,1.9-0.9c0.4,0,0.8,0.1,1.2,0.3c0.4,0.2,0.6,0.4,0.8,0.7c0.2,0.3,0.4,0.6,0.5,1c0.1,0.4,0.2,0.7,0.2,1.1
						c0,0.6-0.1,1.1-0.3,1.5c-0.2,0.5-0.5,0.8-0.9,1.1c-0.4,0.3-0.9,0.4-1.4,0.4C178,332.1,177.4,331.8,176.9,331.2z M179.7,330.8
						c0.2-0.2,0.4-0.5,0.5-0.8c0.1-0.3,0.1-0.7,0.1-1.1c0-0.3,0-0.6-0.1-0.8c-0.1-0.2-0.1-0.5-0.2-0.7c-0.1-0.2-0.3-0.4-0.5-0.5
						c-0.2-0.1-0.4-0.2-0.7-0.2c-0.4,0-0.7,0.1-0.9,0.3c-0.2,0.2-0.4,0.5-0.5,0.8c-0.1,0.3-0.1,0.7-0.1,1.1c0,0.4,0,0.8,0.1,1.1
						c0.1,0.3,0.3,0.6,0.5,0.8c0.2,0.2,0.5,0.3,0.9,0.3C179.2,331.2,179.5,331.1,179.7,330.8z"/>
				</g>
				<g>
					<path class="st11" d="M210.5,331.6c-0.2-0.1-0.2-0.3-0.2-0.5c0-0.1,0-0.2,0.1-0.3l3.8-8.8H209c-0.2,0-0.4-0.1-0.5-0.2
						c-0.1-0.1-0.2-0.3-0.2-0.4c0-0.2,0.1-0.3,0.2-0.4c0.1-0.1,0.3-0.2,0.5-0.2h6c0.3,0,0.5,0.1,0.7,0.2c0.2,0.1,0.2,0.3,0.2,0.5
						c0,0.2,0,0.5-0.1,0.7l-4,9.3c-0.1,0.3-0.4,0.4-0.7,0.4C210.9,331.8,210.7,331.7,210.5,331.6z"/>
				</g>
				<g>
					<path class="st11" d="M246.6,331.6c-0.6-0.2-1-0.6-1.4-1.1c-0.3-0.5-0.5-1.1-0.5-1.7c0-0.7,0.2-1.3,0.6-1.8
						c0.4-0.5,0.9-0.8,1.6-1c-0.7-0.2-1.2-0.5-1.5-0.9c-0.3-0.5-0.5-1-0.5-1.7c0-0.6,0.2-1.2,0.5-1.6c0.3-0.5,0.8-0.8,1.3-1
						c0.5-0.2,1.2-0.3,1.9-0.3c0.5,0,1,0.1,1.4,0.2c0.4,0.1,0.8,0.3,1.2,0.6c0.3,0.2,0.6,0.6,0.8,0.9c0.2,0.4,0.3,0.8,0.3,1.3
						c0,0.7-0.2,1.2-0.5,1.7c-0.4,0.4-0.9,0.8-1.5,0.9c0.7,0.2,1.3,0.5,1.7,1c0.4,0.5,0.6,1.1,0.6,1.8c0,0.7-0.2,1.2-0.5,1.7
						c-0.3,0.5-0.8,0.8-1.4,1.1c-0.6,0.2-1.2,0.4-2,0.4C247.8,332,247.2,331.9,246.6,331.6z M250.2,330.3c0.4-0.3,0.6-0.8,0.6-1.5
						c0-0.7-0.2-1.2-0.7-1.6c-0.4-0.4-1-0.6-1.6-0.6c-0.7,0-1.2,0.2-1.7,0.6c-0.4,0.4-0.7,0.9-0.7,1.6c0,0.4,0.1,0.8,0.3,1.1
						c0.2,0.3,0.5,0.5,0.8,0.7c0.3,0.1,0.7,0.2,1.2,0.2C249.2,330.8,249.8,330.6,250.2,330.3z M250.2,324.8c0.4-0.3,0.6-0.8,0.6-1.4
						c0-0.6-0.2-1.1-0.6-1.4c-0.4-0.3-0.9-0.4-1.6-0.4c-0.3,0-0.6,0-0.8,0.1c-0.3,0.1-0.5,0.2-0.7,0.3c-0.2,0.1-0.4,0.3-0.5,0.6
						c-0.1,0.2-0.2,0.5-0.2,0.8c0,0.6,0.2,1.1,0.6,1.4c0.4,0.3,0.9,0.5,1.6,0.5C249.2,325.3,249.8,325.1,250.2,324.8z"/>
				</g>
				<g>
					<path class="st11" d="M280.8,331.4c-0.2-0.1-0.3-0.3-0.3-0.5c0-0.2,0.1-0.3,0.2-0.5c0.1-0.1,0.2-0.2,0.4-0.2c0.1,0,0.1,0,0.2,0
						c0.7,0.3,1.3,0.5,2,0.5c0.4,0,0.7,0,1-0.1c0.3-0.1,0.5-0.2,0.7-0.3c0.2-0.1,0.4-0.3,0.5-0.5c0.1-0.2,0.3-0.5,0.4-0.7
						c0.1-0.2,0.2-0.5,0.2-0.9c0.1-0.3,0.1-0.7,0.1-1c0-0.3,0-0.7,0-1.1c-0.1,0.4-0.4,0.8-0.9,1.1c-0.5,0.3-1.1,0.5-1.8,0.5
						c-1.1,0-1.9-0.3-2.6-1c-0.6-0.7-1-1.5-1-2.6c0-1.1,0.3-2,1-2.7c0.7-0.7,1.6-1,2.7-1c0.6,0,1.2,0.1,1.6,0.3
						c0.5,0.2,0.9,0.4,1.2,0.7c0.3,0.3,0.6,0.7,0.8,1.1c0.2,0.4,0.3,0.9,0.4,1.4c0.1,0.5,0.1,1,0.1,1.5c0,0.5,0,0.9,0,1.3
						c0,0.4-0.1,0.8-0.2,1.3c-0.1,0.5-0.2,0.9-0.3,1.2c-0.1,0.4-0.3,0.7-0.6,1.1c-0.2,0.3-0.5,0.6-0.8,0.9c-0.3,0.2-0.7,0.4-1.1,0.6
						c-0.5,0.1-1,0.2-1.5,0.2C282.4,332,281.6,331.8,280.8,331.4z M285.4,325.9c0.4-0.4,0.6-1.1,0.6-1.8c0-0.7-0.2-1.3-0.6-1.7
						c-0.4-0.5-1-0.7-1.7-0.7c-0.8,0-1.3,0.2-1.7,0.7c-0.4,0.4-0.6,1-0.6,1.8c0,0.7,0.2,1.3,0.5,1.8c0.4,0.5,0.9,0.7,1.6,0.7
						C284.4,326.6,285,326.4,285.4,325.9z"/>
				</g>
				<g>
					<path class="st11" d="M213.7,362.6c-0.2-0.1-0.2-0.3-0.2-0.5v-1.7H209c-0.2,0-0.4-0.1-0.6-0.2c-0.1-0.2-0.2-0.4-0.2-0.6
						c0-0.2,0-0.3,0.1-0.5l4.3-6.7c0.3-0.5,0.7-0.7,1.3-0.7c0.3,0,0.6,0.1,0.8,0.3c0.2,0.2,0.3,0.5,0.3,0.8v6.5h1.1
						c0.2,0,0.3,0.1,0.4,0.2c0.1,0.1,0.1,0.2,0.1,0.4c0,0.2,0,0.3-0.1,0.4c-0.1,0.1-0.2,0.2-0.4,0.2H215v1.7c0,0.2-0.1,0.4-0.2,0.5
						c-0.2,0.1-0.3,0.2-0.5,0.2C214.1,362.8,213.9,362.7,213.7,362.6z M213.5,359.2v-6l-3.8,6H213.5z"/>
				</g>
				<g>
					<path class="st11" d="M246.9,362.6c-0.5-0.2-1-0.5-1.5-0.9c-0.1-0.1-0.2-0.2-0.2-0.3c0-0.2,0.1-0.3,0.2-0.5
						c0.1-0.2,0.3-0.2,0.5-0.2c0.1,0,0.2,0,0.3,0.1c0.7,0.6,1.6,0.9,2.5,0.9c0.8,0,1.4-0.2,1.8-0.6c0.4-0.4,0.6-1,0.6-1.8
						c0-0.7-0.2-1.3-0.6-1.7c-0.4-0.4-0.9-0.6-1.6-0.6c-0.4,0-0.8,0.1-1.2,0.3c-0.4,0.2-0.7,0.4-1,0.7c-0.1,0.1-0.2,0.1-0.3,0.1
						c-0.2,0-0.4-0.1-0.6-0.2c-0.2-0.1-0.3-0.2-0.3-0.4v-5.1c0-0.5,0.3-0.7,0.8-0.7h5.1c0.2,0,0.3,0.1,0.4,0.2
						c0.1,0.1,0.2,0.3,0.2,0.4c0,0.2,0,0.3-0.1,0.4s-0.2,0.2-0.4,0.2h-4.7l0,3.8l0.1-0.1c0.1-0.1,0.2-0.1,0.3-0.2
						c0.1-0.1,0.3-0.2,0.5-0.3c0.2-0.1,0.4-0.2,0.7-0.2c0.3-0.1,0.6-0.1,0.9-0.1c1,0,1.9,0.3,2.5,1c0.6,0.7,0.9,1.5,0.9,2.6
						c0,1.1-0.4,2-1.1,2.6c-0.7,0.7-1.6,1-2.7,1C248,363,247.4,362.9,246.9,362.6z"/>
				</g>
				<g>
					<path class="st11" d="M282.4,362.7c-0.5-0.2-0.9-0.4-1.2-0.8c-0.3-0.3-0.6-0.7-0.8-1.1c-0.2-0.4-0.3-0.9-0.4-1.4
						c-0.1-0.5-0.1-1-0.1-1.5c0-0.5,0-0.9,0-1.3c0-0.4,0.1-0.8,0.2-1.3c0.1-0.5,0.2-0.9,0.3-1.2c0.1-0.4,0.3-0.7,0.6-1.1
						c0.2-0.3,0.5-0.6,0.8-0.9c0.3-0.2,0.7-0.4,1.1-0.6c0.4-0.1,1-0.2,1.5-0.2c0.8,0,1.6,0.2,2.4,0.6c0.2,0.1,0.3,0.3,0.3,0.5
						c0,0.2-0.1,0.3-0.2,0.5c-0.1,0.1-0.2,0.2-0.4,0.2c-0.1,0-0.1,0-0.2,0c-0.7-0.3-1.3-0.5-2-0.5c-0.4,0-0.7,0-0.9,0.1
						c-0.3,0.1-0.5,0.2-0.7,0.3c-0.2,0.1-0.4,0.3-0.5,0.5c-0.1,0.2-0.3,0.5-0.4,0.7c-0.1,0.2-0.2,0.5-0.2,0.9
						c-0.1,0.3-0.1,0.7-0.1,1c0,0.3,0,0.7,0,1.1c0.1-0.4,0.4-0.8,0.9-1.1c0.5-0.3,1.1-0.5,1.8-0.5c1.1,0,1.9,0.3,2.6,1
						c0.6,0.7,1,1.5,1,2.6c0,1.1-0.3,2-1,2.7c-0.7,0.7-1.6,1-2.8,1C283.5,363,282.9,362.9,282.4,362.7z M282.4,357.5
						c-0.4,0.5-0.6,1.1-0.6,1.8c0,0.7,0.2,1.3,0.6,1.7c0.4,0.5,1,0.7,1.7,0.7c0.7,0,1.3-0.2,1.7-0.7c0.4-0.4,0.6-1,0.6-1.8
						c0-0.7-0.2-1.3-0.5-1.8c-0.4-0.5-0.9-0.7-1.6-0.7C283.4,356.8,282.8,357,282.4,357.5z"/>
				</g>
				<g>
					<path class="st11" d="M212.3,395.1c-0.2-0.1-0.2-0.3-0.2-0.5v-8.8l-1.7,1.1c-0.1,0.1-0.2,0.1-0.3,0.1c-0.2,0-0.3-0.1-0.4-0.2
						c-0.1-0.1-0.2-0.3-0.2-0.4c0-0.2,0.1-0.3,0.3-0.5l2.7-1.7c0.1-0.1,0.3-0.1,0.4-0.1c0.2,0,0.4,0.1,0.5,0.2
						c0.1,0.1,0.2,0.3,0.2,0.6l0,9.7c0,0.2-0.1,0.4-0.2,0.5c-0.2,0.1-0.3,0.2-0.6,0.2C212.6,395.3,212.4,395.2,212.3,395.1z"/>
				</g>
				<g>
					<path class="st11" d="M251.7,388.9c-0.3,0.5-0.8,1.1-1.4,1.7l-3.6,3.5h4.7c0.2,0,0.3,0.1,0.5,0.2c0.1,0.1,0.2,0.3,0.2,0.4
						c0,0.2-0.1,0.3-0.2,0.4c-0.1,0.1-0.3,0.2-0.5,0.2H246c-0.3,0-0.6-0.1-0.7-0.2c-0.2-0.2-0.3-0.3-0.3-0.6c0-0.3,0.1-0.5,0.4-0.8
						l4.1-4.1c0.4-0.4,0.7-0.8,0.9-1.2c0.2-0.4,0.3-0.7,0.3-1.1c0-0.6-0.2-1.1-0.6-1.5c-0.4-0.4-0.9-0.6-1.5-0.6c-0.3,0-0.7,0-1,0.1
						c-0.3,0.1-0.5,0.1-0.6,0.2c-0.1,0.1-0.3,0.2-0.5,0.3c-0.2,0.1-0.4,0.2-0.4,0.3c-0.1,0-0.1,0.1-0.2,0.1c-0.2,0-0.3-0.1-0.4-0.2
						c-0.1-0.1-0.2-0.3-0.2-0.5c0-0.2,0.1-0.4,0.3-0.5c0.5-0.3,1-0.6,1.5-0.7c0.5-0.2,1.1-0.2,1.7-0.2c1,0,1.8,0.3,2.5,0.9
						c0.7,0.6,1,1.4,1,2.2C252.1,387.8,252,388.3,251.7,388.9z"/>
				</g>
				<g>
					<path class="st11" d="M281,394.9c-0.3-0.1-0.4-0.3-0.4-0.6c0-0.2,0.1-0.3,0.2-0.5c0.1-0.1,0.3-0.2,0.4-0.2c0.1,0,0.1,0,0.2,0
						c0.7,0.3,1.5,0.5,2.2,0.5c0.7,0,1.3-0.2,1.7-0.5c0.4-0.3,0.6-0.8,0.6-1.4c0-0.7-0.2-1.2-0.7-1.6c-0.5-0.4-1.1-0.6-1.9-0.6h-0.6
						c-0.2,0-0.3-0.1-0.4-0.2c-0.1-0.1-0.1-0.2-0.1-0.4c0-0.2,0-0.3,0.1-0.4c0.1-0.1,0.2-0.2,0.4-0.2h0.5c0.7,0,1.3-0.2,1.8-0.5
						c0.4-0.3,0.7-0.8,0.7-1.4c0-0.6-0.2-1-0.6-1.3c-0.4-0.3-0.9-0.5-1.5-0.5c-0.8,0-1.6,0.2-2.3,0.5c-0.1,0-0.1,0-0.2,0
						c-0.2,0-0.3-0.1-0.4-0.2c-0.1-0.1-0.2-0.3-0.2-0.5c0-0.2,0.1-0.4,0.3-0.5c0.2-0.2,0.6-0.3,1.2-0.5c0.6-0.1,1.1-0.2,1.6-0.2
						c0.7,0,1.3,0.1,1.8,0.3c0.5,0.2,1,0.6,1.3,1c0.3,0.5,0.5,1,0.5,1.7c0,0.6-0.2,1.2-0.5,1.6c-0.3,0.4-0.8,0.7-1.4,0.9
						c0.7,0.2,1.2,0.5,1.6,1c0.4,0.5,0.6,1.1,0.6,1.9c0,0.5-0.1,1-0.3,1.4c-0.2,0.4-0.5,0.7-0.9,1c-0.4,0.2-0.8,0.4-1.2,0.6
						c-0.4,0.1-0.9,0.2-1.4,0.2C282.7,395.5,281.8,395.3,281,394.9z"/>
				</g>
				<g>
					<path class="st11" d="M210.7,425.6c-0.5-0.2-0.8-0.5-1.1-0.8c-0.3-0.4-0.5-0.8-0.7-1.3c-0.2-0.5-0.3-1-0.4-1.6
						c-0.1-0.5-0.1-1.1-0.1-1.8c0-3.9,1.3-5.8,3.9-5.8c2.6,0,3.9,1.9,3.9,5.8c0,0.6,0,1.2-0.1,1.7c-0.1,0.5-0.2,1.1-0.4,1.6
						c-0.2,0.5-0.4,0.9-0.7,1.3c-0.3,0.4-0.7,0.6-1.1,0.9c-0.5,0.2-1,0.3-1.6,0.3C211.7,426,211.1,425.9,210.7,425.6z M213.1,424.5
						c0.2-0.1,0.4-0.2,0.6-0.4c0.2-0.2,0.3-0.4,0.4-0.6c0.1-0.2,0.2-0.5,0.3-0.7c0.1-0.3,0.1-0.5,0.2-0.9c0-0.3,0.1-0.6,0.1-0.9
						c0-0.3,0-0.6,0-0.9c0-0.3,0-0.6,0-0.9c0-0.3,0-0.6-0.1-0.9c0-0.3-0.1-0.6-0.2-0.9c-0.1-0.3-0.2-0.5-0.3-0.7
						c-0.1-0.2-0.3-0.4-0.4-0.6c-0.2-0.2-0.4-0.3-0.6-0.4c-0.2-0.1-0.5-0.1-0.8-0.1c-0.3,0-0.5,0-0.8,0.1c-0.2,0.1-0.4,0.2-0.6,0.4
						c-0.2,0.2-0.3,0.4-0.4,0.6c-0.1,0.2-0.2,0.5-0.3,0.7c-0.1,0.3-0.1,0.5-0.2,0.9c0,0.3-0.1,0.6-0.1,0.9c0,0.3,0,0.6,0,0.9
						c0,0.3,0,0.6,0,0.9s0,0.6,0.1,0.9c0,0.3,0.1,0.6,0.2,0.9c0.1,0.3,0.2,0.5,0.3,0.7c0.1,0.2,0.3,0.5,0.4,0.6
						c0.2,0.2,0.4,0.3,0.6,0.4c0.2,0.1,0.5,0.2,0.8,0.2C212.6,424.7,212.8,424.6,213.1,424.5z"/>
				</g>
				<g>
					<path class="st11" d="M247.1,422c-0.4-0.4-0.5-0.8-0.5-1.3c0-0.5,0.2-0.9,0.5-1.3s0.8-0.5,1.4-0.5c0.6,0,1.1,0.2,1.4,0.5
						c0.4,0.4,0.6,0.8,0.6,1.3c0,0.5-0.2,0.9-0.5,1.3c-0.4,0.4-0.8,0.5-1.4,0.5C248,422.6,247.5,422.4,247.1,422z"/>
				</g>
				<g>
					<path class="st11" d="M319.7,290.3c-0.4-0.4-0.5-0.8-0.5-1.3c0-0.5,0.2-0.9,0.5-1.2c0.4-0.4,0.8-0.5,1.4-0.5
						c0.6,0,1,0.2,1.4,0.5c0.4,0.3,0.5,0.8,0.5,1.2c0,0.5-0.2,0.9-0.5,1.3c-0.4,0.4-0.8,0.5-1.4,0.5
						C320.5,290.8,320.1,290.7,319.7,290.3z"/>
				</g>
				<g>
					<path class="st11" d="M319.7,300.7c-0.4-0.4-0.5-0.8-0.5-1.3c0-0.5,0.2-0.9,0.5-1.2c0.4-0.4,0.8-0.5,1.4-0.5
						c0.6,0,1,0.2,1.4,0.5c0.4,0.3,0.5,0.8,0.5,1.2c0,0.5-0.2,0.9-0.5,1.3c-0.4,0.4-0.8,0.5-1.4,0.5
						C320.5,301.3,320.1,301.1,319.7,300.7z"/>
				</g>
				<g>
					<path class="st11" d="M278.6,419.8c-0.2-0.2-0.3-0.4-0.3-0.6c0-0.3,0.1-0.5,0.3-0.7c0.2-0.2,0.4-0.3,0.7-0.3h11.1
						c0.3,0,0.5,0.1,0.7,0.3c0.2,0.2,0.3,0.4,0.3,0.7c0,0.3-0.1,0.5-0.3,0.7c-0.2,0.2-0.4,0.3-0.7,0.3h-11.2
						C279,420.1,278.8,420,278.6,419.8z M278.6,424.9c-0.2-0.2-0.3-0.4-0.3-0.6c0-0.3,0.1-0.5,0.3-0.7c0.2-0.2,0.4-0.3,0.7-0.3h11.2
						c0.3,0,0.5,0.1,0.7,0.3c0.2,0.2,0.3,0.4,0.3,0.7c0,0.3-0.1,0.5-0.3,0.7c-0.2,0.2-0.4,0.3-0.7,0.3h-11.2
						C279,425.2,278.8,425.1,278.6,424.9z"/>
				</g>
				<g>
					<path class="st11" d="M320.2,327.3l-3.1,4.2c-0.2,0.2-0.4,0.4-0.6,0.4c-0.2,0-0.3-0.1-0.5-0.2s-0.2-0.3-0.2-0.5
						c0-0.2,0.1-0.3,0.2-0.4l3.5-4.6l-3.3-4.5c-0.1-0.1-0.1-0.2-0.1-0.3c0-0.2,0.1-0.4,0.2-0.5c0.2-0.2,0.4-0.2,0.6-0.2
						c0.2,0,0.4,0.1,0.6,0.3l3,4.1l3-4.1c0.2-0.2,0.4-0.4,0.7-0.4c0.2,0,0.3,0.1,0.5,0.2c0.1,0.1,0.2,0.3,0.2,0.4
						c0,0.1,0,0.3-0.1,0.4l-3.4,4.5l3.4,4.6c0.1,0.1,0.1,0.3,0.1,0.4c0,0.2-0.1,0.4-0.3,0.5c-0.2,0.1-0.4,0.2-0.6,0.2
						c-0.2,0-0.4-0.1-0.6-0.3L320.2,327.3z"/>
				</g>
				<g>
					<path class="st11" d="M320,414.5c-0.2-0.2-0.3-0.5-0.3-0.8v-5.2h-5.4c-0.3,0-0.6-0.1-0.8-0.3c-0.2-0.2-0.4-0.5-0.4-0.8
						c0-0.3,0.1-0.6,0.3-0.8c0.2-0.2,0.5-0.3,0.8-0.3h5.4v-5.2c0-0.3,0.1-0.6,0.3-0.8c0.2-0.2,0.5-0.3,0.8-0.3
						c0.3,0,0.6,0.1,0.8,0.3c0.2,0.2,0.3,0.5,0.3,0.8v5.2h5.4c0.3,0,0.6,0.1,0.8,0.3c0.2,0.2,0.4,0.5,0.4,0.8c0,0.3-0.1,0.6-0.3,0.8
						c-0.2,0.2-0.5,0.3-0.8,0.3h-5.4v5.2c0,0.3-0.1,0.6-0.3,0.8c-0.2,0.2-0.5,0.3-0.8,0.3C320.4,414.8,320.2,414.7,320,414.5z"/>
				</g>
				<g>
					<path class="st11" d="M170.1,361.5c-0.1-0.2-0.2-0.4-0.2-0.6v-3.8h-3.9c-0.2,0-0.4-0.1-0.6-0.2c-0.2-0.1-0.3-0.3-0.3-0.6
						c0-0.2,0.1-0.4,0.2-0.6c0.2-0.1,0.4-0.2,0.6-0.2h3.9v-3.8c0-0.2,0.1-0.4,0.2-0.6c0.1-0.2,0.3-0.2,0.6-0.2
						c0.2,0,0.4,0.1,0.6,0.2c0.2,0.2,0.2,0.4,0.2,0.6v3.8h3.9c0.2,0,0.4,0.1,0.6,0.2c0.2,0.1,0.3,0.3,0.3,0.6c0,0.2-0.1,0.4-0.3,0.6
						c-0.2,0.1-0.4,0.2-0.6,0.2h-3.9v3.8c0,0.2-0.1,0.4-0.2,0.6c-0.2,0.2-0.3,0.2-0.6,0.2C170.4,361.7,170.2,361.7,170.1,361.5z"/>
				</g>
				<g>
					<path class="st11" d="M314.7,358.3c-0.2-0.1-0.2-0.3-0.2-0.4c0-0.2,0.1-0.3,0.2-0.4c0.2-0.1,0.4-0.2,0.7-0.2h10.8
						c0.3,0,0.5,0.1,0.7,0.2c0.2,0.1,0.2,0.3,0.2,0.4s-0.1,0.3-0.2,0.4c-0.2,0.1-0.4,0.2-0.7,0.2h-10.8
						C315.1,358.5,314.9,358.4,314.7,358.3z"/>
				</g>
				<g>
					<path class="st11" d="M178,363.6c-0.1-0.1-0.2-0.3-0.2-0.4c0-0.2,0.1-0.3,0.2-0.4c0.1-0.1,0.3-0.2,0.5-0.2h7.3
						c0.2,0,0.3,0.1,0.5,0.2c0.1,0.1,0.2,0.3,0.2,0.4c0,0.2-0.1,0.3-0.2,0.4c-0.1,0.1-0.3,0.2-0.5,0.2h-7.3
						C178.2,363.8,178.1,363.7,178,363.6z"/>
				</g>
				<g>
					<path class="st11" d="M173.8,365.8c-0.2,0.1-0.4,0.2-0.6,0.1c-0.1-0.1-0.2-0.3-0.2-0.5c0-0.3,0.1-0.6,0.3-1l8-13.9
						c0.2-0.4,0.4-0.6,0.7-0.8c0.2-0.1,0.4-0.2,0.6-0.1c0.1,0.1,0.2,0.3,0.2,0.5c0,0.3-0.1,0.6-0.3,1l-8,13.9
						C174.2,365.4,174,365.6,173.8,365.8z"/>
				</g>
				<g>
					<path class="st11" d="M314.7,294.8c-0.2-0.1-0.2-0.3-0.2-0.4c0-0.2,0.1-0.3,0.2-0.4c0.2-0.1,0.4-0.2,0.7-0.2h10.8
						c0.3,0,0.5,0.1,0.7,0.2c0.2,0.1,0.2,0.3,0.2,0.4s-0.1,0.3-0.2,0.4c-0.2,0.1-0.4,0.2-0.7,0.2h-10.8
						C315.1,295,314.9,294.9,314.7,294.8z"/>
				</g>
				<g>
					<path class="st11" d="M206.5,300.3c-0.2-0.1-0.3-0.3-0.4-0.5l-3.7-8.2v8.5c0,0.2-0.1,0.3-0.2,0.4c-0.1,0.1-0.3,0.1-0.5,0.1
						c-0.2,0-0.4,0-0.5-0.1c-0.1-0.1-0.2-0.2-0.2-0.4v-9.3c0-0.3,0.1-0.6,0.4-0.8c0.2-0.2,0.5-0.3,0.8-0.3c0.3,0,0.5,0.1,0.7,0.2
						c0.2,0.2,0.4,0.4,0.6,0.7l3.6,7.9l3.6-7.9c0.1-0.3,0.3-0.5,0.6-0.7s0.5-0.2,0.7-0.2c0.3,0,0.6,0.1,0.8,0.3
						c0.2,0.2,0.4,0.5,0.4,0.8v9.3c0,0.2-0.1,0.3-0.2,0.4c-0.1,0.1-0.3,0.1-0.5,0.1c-0.2,0-0.4,0-0.5-0.1c-0.1-0.1-0.2-0.2-0.2-0.4
						v-8.5l-3.7,8.2c-0.1,0.2-0.2,0.4-0.4,0.5c-0.2,0.1-0.4,0.2-0.5,0.2C206.9,300.5,206.7,300.4,206.5,300.3z"/>
					<path class="st11" d="M216.2,300.6c-0.2-0.1-0.2-0.3-0.2-0.6v-9.7c0-0.2,0.1-0.4,0.2-0.5c0.2-0.1,0.3-0.2,0.6-0.2h3.4
						c0.4,0,0.8,0,1.2,0.1c0.4,0,0.7,0.1,1.1,0.3c0.4,0.1,0.7,0.3,0.9,0.5c0.2,0.2,0.4,0.5,0.6,0.8c0.2,0.3,0.2,0.7,0.2,1.2
						c0,0.6-0.2,1.2-0.6,1.7c-0.4,0.5-1,0.8-1.8,0.9v0c1.2,0.3,1.9,1.1,2.1,2.5l0.3,2.5c0,0,0,0.1,0,0.1c0,0.2-0.1,0.4-0.2,0.5
						c-0.1,0.1-0.3,0.2-0.5,0.2c-0.2,0-0.4-0.1-0.6-0.2c-0.2-0.1-0.3-0.3-0.3-0.5l-0.2-2.2c-0.1-0.5-0.1-0.8-0.2-1.1
						c-0.1-0.3-0.2-0.5-0.4-0.7c-0.2-0.2-0.4-0.3-0.6-0.4c-0.2-0.1-0.6-0.1-1-0.1h-2.6v4.4c0,0.2-0.1,0.4-0.2,0.6
						c-0.2,0.1-0.3,0.2-0.6,0.2C216.5,300.7,216.3,300.7,216.2,300.6z M219.8,294.4c0.3,0,0.6,0,0.8,0c0.2,0,0.5-0.1,0.7-0.2
						c0.3-0.1,0.5-0.2,0.6-0.3c0.2-0.1,0.3-0.3,0.4-0.6c0.1-0.2,0.2-0.5,0.2-0.8c0-0.3,0-0.5-0.1-0.7c-0.1-0.2-0.2-0.4-0.3-0.5
						c-0.1-0.1-0.3-0.2-0.4-0.3c-0.1-0.1-0.3-0.1-0.5-0.2c-0.2,0-0.4-0.1-0.6-0.1c-0.2,0-0.4,0-0.6,0h-2.5v3.6H219.8z"/>
				</g>
				<g>
					<path class="st11" d="M243.2,300.3c-0.2-0.1-0.3-0.3-0.4-0.5l-3.7-8.2v8.5c0,0.2-0.1,0.3-0.2,0.4c-0.1,0.1-0.3,0.1-0.5,0.1
						c-0.2,0-0.4,0-0.5-0.1c-0.1-0.1-0.2-0.2-0.2-0.4v-9.3c0-0.3,0.1-0.6,0.4-0.8s0.5-0.3,0.8-0.3c0.3,0,0.5,0.1,0.7,0.2
						c0.2,0.2,0.4,0.4,0.6,0.7l3.6,7.9l3.6-7.9c0.1-0.3,0.3-0.5,0.6-0.7c0.2-0.2,0.5-0.2,0.7-0.2c0.3,0,0.6,0.1,0.8,0.3
						c0.2,0.2,0.4,0.5,0.4,0.8v9.3c0,0.2-0.1,0.3-0.2,0.4c-0.1,0.1-0.3,0.1-0.5,0.1c-0.2,0-0.4,0-0.5-0.1c-0.1-0.1-0.2-0.2-0.2-0.4
						v-8.5l-3.7,8.2c-0.1,0.2-0.2,0.4-0.4,0.5c-0.2,0.1-0.4,0.2-0.5,0.2C243.6,300.5,243.4,300.4,243.2,300.3z"/>
					<path class="st11" d="M251.7,297c-0.1-0.1-0.2-0.2-0.2-0.4c0-0.2,0.1-0.3,0.2-0.4c0.1-0.1,0.3-0.2,0.5-0.2h3.5
						c0.2,0,0.3,0.1,0.5,0.2c0.1,0.1,0.2,0.2,0.2,0.4c0,0.2-0.1,0.3-0.2,0.4c-0.1,0.1-0.3,0.1-0.5,0.1h-3.5
						C252,297.2,251.8,297.1,251.7,297z"/>
				</g>
				<g>
					<path class="st11" d="M279.9,300.3c-0.2-0.1-0.3-0.3-0.4-0.5l-3.7-8.2v8.5c0,0.2-0.1,0.3-0.2,0.4c-0.1,0.1-0.3,0.1-0.5,0.1
						c-0.2,0-0.4,0-0.5-0.1c-0.1-0.1-0.2-0.2-0.2-0.4v-9.3c0-0.3,0.1-0.6,0.4-0.8s0.5-0.3,0.8-0.3c0.3,0,0.5,0.1,0.7,0.2
						c0.2,0.2,0.4,0.4,0.6,0.7l3.6,7.9l3.6-7.9c0.1-0.3,0.3-0.5,0.6-0.7c0.2-0.2,0.5-0.2,0.7-0.2c0.3,0,0.6,0.1,0.8,0.3
						c0.2,0.2,0.4,0.5,0.4,0.8v9.3c0,0.2-0.1,0.3-0.2,0.4c-0.1,0.1-0.3,0.1-0.5,0.1c-0.2,0-0.4,0-0.5-0.1c-0.1-0.1-0.2-0.2-0.2-0.4
						v-8.5l-3.7,8.2c-0.1,0.2-0.2,0.4-0.4,0.5c-0.2,0.1-0.4,0.2-0.5,0.2C280.2,300.5,280,300.4,279.9,300.3z"/>
					<path class="st11" d="M292.7,300.6c-0.1-0.1-0.2-0.3-0.2-0.4v-2.7h-2.8c-0.2,0-0.3-0.1-0.4-0.2c-0.1-0.1-0.2-0.2-0.2-0.4
						c0-0.2,0.1-0.3,0.2-0.4c0.1-0.1,0.3-0.2,0.4-0.2h2.8v-2.7c0-0.2,0.1-0.3,0.2-0.4c0.1-0.1,0.2-0.2,0.4-0.2
						c0.2,0,0.3,0.1,0.4,0.2c0.1,0.1,0.2,0.3,0.2,0.4v2.7h2.8c0.2,0,0.3,0.1,0.4,0.2c0.1,0.1,0.2,0.2,0.2,0.4c0,0.2-0.1,0.3-0.2,0.4
						c-0.1,0.1-0.3,0.2-0.4,0.2h-2.8v2.7c0,0.2-0.1,0.3-0.2,0.4c-0.1,0.1-0.2,0.2-0.4,0.2C293,300.7,292.8,300.7,292.7,300.6z"/>
				</g>
				<polyline class="st21" points="279.1,263.8 283.6,269.8 288.6,260.8 293.6,260.8 				"/>
			</g>
		</g>
	</g>
</g>
<g id="Character">
	<g>
		<g>
			<g>
				<g>
					<path class="st22" d="M304.8,439.3c0,0-4.4,6.8-8.1,9.6c-3.6,2.9-12.1,7-14.5,8.9c-2.4,1.9-1.3,3.6-0.5,4.4
						c0.8,0.8,11.8,1.4,17.7,1.4c6,0,16.7-2.5,16.7-2.5s4.8,0.8,6,0.2c1.2-0.6,2-2,2.2-4.1c0.2-2.1-0.5-14-0.5-14L304.8,439.3z"/>
					<path class="st23" d="M317.5,458c-4.6,0.7-5.5,1.8-14.5,3.1c-7.4,1.1-18.3-0.3-22.3-1c0,0.9,0.5,1.6,1,2.1
						c0.8,0.8,11.8,1.4,17.7,1.4s16.7-2.5,16.7-2.5s4.8,0.8,6,0.2c1.2-0.6,2-1.9,2.2-4C322.7,457.4,320.3,457.6,317.5,458z"/>
				</g>
				<g>
					<path class="st24" d="M308.6,444.3c0,0-5.1-2.3-8.6,1.6"/>
					<path class="st24" d="M302.8,442.4c0,0,4,3.1,3.4,6.4"/>
				</g>
				<g>
					<path class="st24" d="M304.8,447.9c0,0-4-1.9-6.8,1.3"/>
					<path class="st24" d="M300.2,446.3c0,0,3.1,2.5,2.7,5.3"/>
				</g>
				<g>
					<path class="st24" d="M301.8,451.5c0,0-3.7-1.8-9.6,0.3"/>
					<path class="st24" d="M297.1,449.9c0,0,2.1,2.2-0.5,4.1"/>
				</g>
			</g>
			<path class="st19" d="M295.2,287.3c0,0-0.6,49.7,0.9,65.3c1.5,15.5,4.5,40.6,6.9,56.1c2.5,15.5,1,24.1,1,24.1s-1.6-0.5-1.5,1.6
				c0.1,2.1,0.7,6.4,0.7,6.4s4.5,2.3,9.5,3.5c5,1.2,11.5,1.2,11.5,1.2s0.3-8.7,0.4-13.1c0.1-4.4,0-7.7,0-7.7l0.9-49.3
				c0,0,7.8,53.7,8.2,56.8c0.4,3.1-1.4,5.2-1.1,7.4c0.3,2.1,1.2,6.7,1.2,6.7s4.8-3.4,9.9-1.9c5.2,1.5,10.6,4.6,10.6,4.6
				s0.8-1,1.9-5.9c1.1-4.9,0-8.2-0.1-11.8c-0.1-3.6-1.9-56.1-1.6-57.4s2.5-49.7,2.5-49.7s1.8-19.3,1.4-25.7
				c-0.4-6.4-1.7-13.1-1.7-13.1s-29.6,1.3-44.2,1.2c-14.6,0-17.6-0.5-17.6-0.5L295.2,287.3z"/>
			<path class="st23" d="M356.7,285.3c0,0-29.6,1.3-44.2,1.2c-14.6,0-17.6-0.5-17.6-0.5l0.3,1.3c0,0,0,1.5,0,4.1
				c2.8,0.8,9.9,2.2,26.2,1.9c19.5-0.4,32.4-2.8,36.2-3.6C357.1,287.1,356.7,285.3,356.7,285.3z"/>
			<polygon class="st22" points="318.8,294.1 310.7,294 310.8,289.5 318.9,289.5 			"/>
			<path class="st25" d="M316.1,319.2l5.8,4.3c0,0,1.6,34.9,3.6,51.9"/>
			<line class="st25" x1="311.8" y1="316" x2="313.7" y2="317.4"/>
			<path class="st25" d="M353.3,413.9c0.1,1.2,0.1,2.4,0.1,3.4"/>
			<path class="st25" d="M353.4,339.5c-0.8,14.3-1.8,30-2.4,35.6c-0.9,9,1.1,23.4,2,34.8"/>
			<path class="st25" d="M354.9,312.3c0,0-0.6,11.4-1.4,24.7"/>
			<path class="st25" d="M335.7,293.9c0,0,0,7.5,0.1,14.9"/>
			<line class="st25" x1="337.5" y1="293.9" x2="339.6" y2="302.6"/>
			<line class="st25" x1="299.9" y1="294" x2="297.9" y2="305.2"/>
			<line class="st25" x1="301.8" y1="294.2" x2="301.4" y2="299.9"/>
			<path class="st25" d="M313.5,294.7c0,0-0.9,15.5-0.1,16.7s2.9,3.1,2.9,3.1"/>
			<path class="st25" d="M351.1,307.9c0.9,0.9,2,1.8,3.2,2.6"/>
			<path class="st25" d="M345.4,292.3c0,0-0.7,7.7,4.2,13.9"/>
		</g>
		<path class="st22" d="M308.7,204.8c0,0-19.8,8.4-20.1,9.6c-0.3,1.2-0.9,50.2-0.9,50.2s-11.9-0.3-13.2,5.6
			c-1.3,5.9,1.8,10.3,6.8,12.5c5,2.2,11.4-1.2,11.4-1.2s-1.5,3.9-0.6,5.4c0.9,1.5,3.6,2.2,4.3,2.2c0.7,0,20.6,0.8,34.1,0.5
			c13.6-0.2,20.4-1.7,22.6-4.1c2.2-2.4,0.2-11.5,0.2-11.5l9.2,0c0,0-0.4,7.1,8.3,8.6c8.7,1.5,13.9-7.6,9.9-23.7
			c-4.1-16.2-18.8-44.1-21.2-47c-2.4-2.9-20.9-10.3-20.9-10.3L308.7,204.8z"/>
		<path class="st25" d="M360,266.8c0,0,9.6-9.3,15.5-7.3"/>
		<path class="st25" d="M361.5,263.4c0,0,5.1-6.2,9-6.7"/>
		<line class="st26" x1="292.8" y1="281.5" x2="293.1" y2="266.2"/>
		<polygon class="st23" points="313,209.6 316.1,216 310.2,279.1 315.3,288 321.2,277.7 318.8,216.7 322.5,209 317.6,202.2 		"/>
		<g>
			<path class="st22" d="M335.6,172.2l-0.4,24.2l-16.8,9.9l-7.3-7.6l0.1-7.6c0,0,2.1,3.1,8.7,0.8c6.6-2.4,8.8-4.2,9.5-9
				c0.6-4.8,0.4-19.7,0.4-19.7l6.6,0L335.6,172.2z"/>
			<polygon class="st23" points="331.4,181.5 335.4,181.5 335.6,172.2 336.3,163.1 331,163.1 			"/>
			<path class="st22" d="M337.8,164.3l-0.2,9c0,0-0.8,1.7-2.4,1.8c-1.6,0.2-3.3-1.3-3.3-1.3l0.2-9.6L337.8,164.3z"/>
			<path class="st27" d="M318.1,197L318.1,197c-7.4,0-13.4-6.1-13.2-13.6l0.4-20.6l27,0l-0.4,20.6C331.7,190.9,325.6,197,318.1,197z
				"/>
			<path class="st23" d="M317.3,197l1.6,0c7,0,12.8-5.7,12.9-12.8l0.4-21.4l-8.7,0l0,1.8c0,0-0.2,1.7,1.6,3.3
				c1.8,1.7,3.6,3.5,3.6,3.5s0.4,8.7-1.1,12c-1.5,3.3-4.8,1.7-4.8,1.7s-4.3-5.2-9.8-5c-5.5,0.2-8.1,4.1-8.1,4.1
				C304.8,191.2,310.3,197,317.3,197z"/>
			<polyline class="st25" points="311.7,170.1 310.8,180.6 316.5,179 			"/>
			<path class="st28" d="M308.9,183.8c0,0,2.1,3.7,9.8,0.4"/>
			<path class="st0" d="M318.8,171.7c0,0.9-0.5,1.6-1,1.6c-0.6,0-1-0.7-1-1.6c0-0.9,0.5-1.6,1-1.6
				C318.4,170.1,318.8,170.8,318.8,171.7z"/>
			<path class="st0" d="M309.5,171.7c0,0.9-0.5,1.6-1,1.6c-0.6,0-1-0.7-1-1.6c0-0.9,0.5-1.6,1-1.6S309.5,170.8,309.5,171.7z"/>
			<path class="st25" d="M315.6,167.3c0,0,4-1.8,6.5,1.3"/>
			<path class="st25" d="M311,167.9c0,0-3.4-2.2-4.2,0.4"/>
			<g>
				<path class="st19" d="M312,141.8c0,0-5,2.1-6.5,5.8s-2,16.7-2,16.7s-9.3,1.9-7.9,2.1c1.4,0.2,47.6,0.1,47.6,0.1
					c-1.4-2.5-2.2-2.1-2.6-4.2c-0.4-2.1-0.6-12.5-2.6-16.7C336,141.4,321,136.2,312,141.8z"/>
				<path class="st25" d="M319.2,141.4c0,0-1,0.3-2.6,1.3c-1.6,1-2.4,2.9-2.4,2.9s6.5,0.2,6.4,3.4c-0.1,3.2-0.3,14.9-0.3,14.9"/>
			</g>
		</g>
		<polygon class="st22" points="310.9,196.9 318.8,204.1 335.6,193.6 338.7,201.5 325.5,214.8 318.4,206.3 310.8,212.9 308.7,204.8 
					"/>
		<path class="st25" d="M298.6,248.9c0,0,5.2,9.7,8.7,13.6c3.5,3.9,5.1,4.1,5.1,4.1L303,268l-7.2-22.4L298.6,248.9z"/>
		<polygon class="st23" points="254,225.2 279.2,274.2 307.6,271.1 287.8,222.2 		"/>
		<g>
			<path class="st22" d="M268.1,262.1c0,0-2,0.9-1.9,2.3c0.1,1.4,0.2,2.1,1.3,1.8c1.1-0.3,6.9-3.7,8-4.7s2-2,0.5-2
				C274.6,259.4,270.6,260.8,268.1,262.1z"/>
			<path class="st22" d="M267.9,266.2c0,0,0.3,3.4,1,3.7c0.7,0.3,8.2-4.3,9.5-5.3c1.3-0.9,1.6-1.8,0.7-2.3c-0.9-0.5-7.2,2.3-7.7,2.5
				S267.9,266.2,267.9,266.2z"/>
			<path class="st22" d="M268.8,269.8c0,0,1.5,2.1,2.3,2.5c0.7,0.4,7.9-4.4,8.8-5.4c0.9-1,0.9-2.2,0.3-2.4c-0.6-0.2-1.8,0-1.8,0
				S270.7,268.9,268.8,269.8z"/>
			<path class="st22" d="M271.1,272.4c0,0,1.1,1.2,2.2,1.5c1,0.3,5.3-1.7,6.8-3.4c1.5-1.7-0.9-2.3-0.9-2.3S272.5,271.9,271.1,272.4z
				"/>
		</g>
		<path class="st11" d="M268.2,228.6c0.5,0.7,0.4,1.5-0.2,1.9c-0.6,0.4-1.4,0.2-1.8-0.5c-0.5-0.7-0.4-1.5,0.2-1.9
			C266.9,227.8,267.7,228,268.2,228.6z"/>
		<path class="st11" d="M279.4,227.1c0.5,0.7,0.4,1.5-0.2,1.9c-0.6,0.4-1.4,0.2-1.8-0.5c-0.5-0.7-0.4-1.5,0.2-1.9
			C278.1,226.2,279,226.5,279.4,227.1z"/>
		<path class="st22" d="M352.1,226.4c-1.2,4.1-2.5,9.2-2.6,11.4c-0.2,4.1,10.5,29,10.5,29l2.7,7.2"/>
		<path class="st22" d="M353.8,220.5c0,0-0.4,1.3-0.9,3.1"/>
		<path class="st22" d="M363.5,267c0,0,4.1-0.6,5.8,2c1.7,2.6,1.3,6.9-0.3,9.2c-1.7,2.3-4.7,0.6-4.7,0.6S365.7,273,363.5,267z"/>
		<g>
			<path class="st22" d="M336.4,244.3c0,0-1.2-4.1,5-6.7c6.2-2.6,10.5-1.1,10.6,2.6c0,0-1.8,3.4-5.3,5.4
				C343.3,247.6,337.7,246.8,336.4,244.3z"/>
			<polygon class="st22" points="368.8,290.2 374.7,302.2 370.9,304.3 			"/>
			<path class="st22" d="M331.6,242.2l25.3,67.9c0,0,2.5,3.3,7.7,3c2.9-0.2,5.6-2.3,7.3-4c1.3-1.4,1.8-3.4,1.2-5.2L352,240.3
				C352,240.3,339.5,249.4,331.6,242.2z"/>
		</g>
		<g>
			<path class="st22" d="M364.6,267.3c0,0-5.1-2.3-6.8-2.3c-1.6,0-10.1,5.1-11.9,6.4c-1.8,1.3-1.7,2-1,2.1c0.6,0.2,1.5,0.3,1.5,0.3
				s-2.1,2.3-1.5,3.3s2.6,0.8,2.6,0.8s-1.5,1.8,0.1,2.3s3.7,0.7,3.7,0.7s-2.8,1.5-0.5,2.3c2.3,0.8,10.1-2.1,13-3.3
				c2.9-1.1,3-3.6,3-7.4C366.9,268.8,364.6,267.3,364.6,267.3z"/>
			<path class="st29" d="M346.4,273.8c0,0,8-4,9.7-4.3s2.6-0.4,2.6-0.4"/>
			<path class="st29" d="M347.5,277.9c0,0,6.6-2.8,9.1-3.3s3.2-0.6,3.2-0.6"/>
			<path class="st29" d="M351.3,280.9c0,0,6.5-1.1,9.3-2.9"/>
		</g>
		<g>
			<path class="st22" d="M333.7,446.3c0,0-2.1,7.6-2.9,8.6c-0.8,1.1-5.8,7.4-5.8,9.6c0,2.3,1.6,3.9,5.6,4.8c4,0.9,10.3,1.2,15.2-1
				c5-2.3,7.2-3,8.5-6.5c1.3-3.5,0.4-15.1,0.4-15.1S339.2,435.4,333.7,446.3z"/>
			<path class="st23" d="M354.3,461.9c0.4-1.2,0.6-3.4,0.7-5.7c-0.9,1.3-2.1,3.2-3.5,4.7c-2.4,2.7-6.7,5.7-14.7,6.3
				c-5.9,0.4-9.8-2.1-11.5-3.5c-0.1,0.4-0.2,0.7-0.2,0.9c0,2.3,1.6,3.9,5.6,4.8c4,0.9,10.3,1.2,15.2-1
				C350.8,466.1,353,465.3,354.3,461.9z"/>
			<g>
				<path class="st24" d="M344.7,443.7c0,0-6.8-0.3-8.9,3.7"/>
				<path class="st24" d="M337.2,443.8c0,0,5.8,1.3,6.7,4"/>
			</g>
			<g>
				<path class="st24" d="M343.3,448.6c0,0-6.8-0.3-8.9,3.7"/>
				<path class="st24" d="M335.9,448.8c0,0,5.8,1.3,6.7,4"/>
			</g>
			<g>
				<path class="st24" d="M342,453.6c0,0-6.8-0.3-8.9,3.7"/>
				<path class="st24" d="M334.5,453.7c0,0,5.8,1.3,6.7,4"/>
			</g>
		</g>
	</g>
</g>
</svg>
