<?xml version="1.0" encoding="utf-8"?>
<!-- Generator: Adobe Illustrator 24.0.1, SVG Export Plug-In . SVG Version: 6.00 Build 0)  -->
<svg version="1.1" xmlns="http://www.w3.org/2000/svg" xmlns:xlink="http://www.w3.org/1999/xlink" x="0px" y="0px"
	 viewBox="0 0 2000 2000" style="enable-background:new 0 0 2000 2000;" xml:space="preserve">
<style type="text/css">
	.st0{fill:#C3A079;}
	.st1{display:none;}
	.st2{display:inline;}
</style>
<g id="Calque_1">
	<g>
		<path class="st0" d="M750.3,1963.9c-45.6-21.7-55.4-41.4-46.5-91c11.8-65.8,23.5-131.6,33.9-197.6c1.3-8-2.9-19.8-8.8-25.6
			c-49.4-48.8-99.6-96.9-150.1-144.6c-21-19.8-30.9-42.9-22.5-70.8c8.5-28,29.3-41.7,58.2-45.6c68.2-9.2,136.3-19.8,204.5-29
			c14.9-2,24.1-7.3,31-21.7c29.6-61.3,61-121.7,91-182.8c12.7-25.8,31.1-42.5,60.7-42.7c30.4-0.3,49.3,16.8,62.3,43.2
			c29.9,61.2,61.2,121.7,90.6,183c6.6,13.9,15.3,18.9,29.5,20.9c70.1,9.5,140.1,19.9,210.1,29.9c26.7,3.8,45.4,18.2,53.8,43.5
			c8.3,25.3,2.2,48.4-17.1,67c-51.7,50.1-103.5,100.1-155.7,149.6c-8.3,7.8-10.8,15-8.7,26.2c12.3,67.6,24.2,135.3,35.8,203
			c7.5,43.7-5,65.3-48.3,85.1c-8.8,0-17.5,0-26.3,0c-12.9-6.2-25.9-12.2-38.6-18.8c-57.6-29.8-115-60-172.9-89.3
			c-6.6-3.3-17.5-4.8-23.6-1.7c-71.1,36-141.6,73-212.3,109.7C770.4,1963.9,760.3,1963.9,750.3,1963.9z M1002.9,1177.7
			c-4.7,8.3-8.2,13.9-11.2,19.8c-31.6,63.1-63.9,125.8-94.3,189.4c-10.2,21.2-24.7,30.3-47.4,33.2c-63.9,8.1-127.6,17.8-191.4,26.9
			c-12.5,1.8-24.9,4.1-42.9,7.2c9.5,7.8,15,11.9,19.9,16.6c51.9,49.8,103.5,99.9,155.7,149.4c13.2,12.5,17.6,26.1,14.1,43.7
			c-5.9,30-10.9,60.2-16.1,90.3c-8.2,47.2-16.2,94.4-24.8,144.8c8.2-3.9,13.7-6.4,19-9.1c64.4-33.3,129.1-66.1,193-100.4
			c18.7-10.1,34.4-9.8,52.7,0.2c37.2,20.4,75.3,39.4,113.1,58.9c31.5,16.3,63,32.6,95.9,49.6c0-6.6,0.6-10.9-0.1-14.9
			c-12.4-72-24.1-144.1-37.9-215.8c-4.2-22,1.7-36.7,17.3-51.3c51.5-48.4,102.1-97.8,153.3-146.5c4.8-4.6,11.6-7,17.5-10.4
			c-8.5-6.8-12-8.1-15.6-8.6c-73.7-10.5-147.3-21.2-221.1-31c-20.4-2.7-34.1-11.1-43.2-30.4c-21.8-46.3-45.3-91.8-68.2-137.6
			C1028.1,1227.9,1016.1,1204.1,1002.9,1177.7z"/>
		<path class="st0" d="M1964.5,1303.6c-11.1,14-20.9,29.3-33.4,41.9c-34,34.1-68.9,67.4-104.1,100.3c-9.6,9-13.1,16.9-10.4,30.7
			c10,50.9,18.1,102.1,26.9,153.2c7.1,41.3-9.9,71.5-45.8,76.5c-13.2,1.8-28.9-1.9-41.1-7.8c-45.5-22.2-90.7-45.3-134.7-70.2
			c-18.4-10.4-32.4-10.9-51.1-0.5c-44.7,25.1-90.7,47.8-136.3,71.2c-18.4,9.4-33.6,6.9-43.9-6.2c-12.6-16-8.9-37.6,10.5-47.9
			c59.6-31.8,119.3-63.3,180-93c9.2-4.5,25.1-2.3,35.1,2.5c48.3,23.5,95.7,49,143.4,73.8c5.5,2.8,11.1,5.4,19.7,9.6
			c-6.5-38.7-12.6-74.7-18.7-110.7c-3.6-20.9-5.9-42.2-11.2-62.7c-5.2-20.4,1.4-34.5,16-48.2c37.5-35.1,74-71.1,111-106.6
			c4.4-4.3,9.3-8,18.3-15.6c-41-6-76.4-11.2-111.8-16.4c-23.5-3.4-47-7.6-70.6-10c-17.6-1.9-28.2-10.6-35.7-26.1
			c-23.3-47.7-47.3-95-71.1-142.5c-2.7-5.4-5.8-10.5-10.1-18.2c-26.7,53.3-52.8,103.6-77,154.8c-9.6,20.4-22.9,30.4-45.3,33.2
			c-61.5,7.7-122.7,17.3-184.1,25.9c-20.3,2.8-36.4-8.3-38.9-26.1c-2.7-19.1,7.5-33.4,28.6-36.7c56.3-8.7,112.8-16.1,169-25.3
			c7.5-1.2,16.6-8.2,20.1-15c24-46,47.2-92.3,69.6-139.1c12.2-25.5,28.5-44.7,58.9-44.5c29.5,0.2,45.5,18.8,57.5,43.7
			c21.6,45.1,45.2,89.2,66.5,134.3c7,14.7,15.9,21.1,31.9,23.1c47.8,5.8,95.4,14.3,143.3,19.6c31.6,3.5,56.3,14.7,69.2,45.2
			C1964.5,1283.6,1964.5,1293.6,1964.5,1303.6z"/>
		<path class="st0" d="M39.8,1273.6c12.8-30.8,37.8-41.6,69.3-45.2c49.7-5.6,99.2-14,148.8-20.5c11.8-1.5,18.3-6.3,23.6-17.3
			c23.3-48.4,48.2-96,71.8-144.2c11.4-23.3,28.3-38.5,55-38.6c26.6-0.1,44,14.6,55.4,38c23.9,48.8,48.5,97.2,72.4,146
			c4.5,9.2,9.6,13.9,20.7,15.3c55.2,7.2,110.3,15.5,165.3,24c24.2,3.7,35.2,17.2,32.3,37.3c-2.8,19.2-19.3,28.9-42.5,25.6
			c-58.2-8.4-116.4-17.3-174.8-24.4c-25.4-3.1-41.8-12.9-52.9-37.2c-23-50.5-49-99.6-75.2-152c-4.2,7.5-7.2,12.7-9.9,18
			c-23.8,47.4-47.8,94.8-71.3,142.5c-7.5,15.3-17.9,24.1-35.5,26.4c-57.1,7.6-114,16.4-170.9,24.7c-2.2,0.3-4.4,0.9-6.5,1.4
			c14.3,15.1,27.6,29.8,41.8,43.7c28.6,28.1,57.5,55.8,86.4,83.5c11.3,10.8,15.3,22.9,12.4,38.8c-10.6,58.3-20.2,116.7-30.9,178.9
			c8.5-4.2,14.3-7,20-9.9c47.2-24.5,94.5-48.7,141.4-73.8c15.3-8.2,28.8-8.6,44.3-0.4c55.8,29.6,112.1,58.3,168,87.7
			c20.9,11,27.7,28.8,18.5,46.1c-9,16.9-27.6,21.1-48.7,10.2c-48.3-25-96.7-50-144.7-75.6c-10.3-5.5-18.4-6.1-29.2-0.3
			c-47.3,25.5-95.5,49.6-143,74.8c-23.4,12.4-46.3,15.7-68.9-0.5c-22.7-16.2-26.7-39.3-22.2-65.2c9.2-52.3,17.5-104.7,27.6-156.8
			c2.4-12.4-0.9-19.5-9.3-27.5c-35.5-33.5-70.9-67.2-105.3-101.7c-12.6-12.6-22.5-27.8-33.6-41.8
			C39.8,1293.6,39.8,1283.6,39.8,1273.6z"/>
		<path class="st0" d="M1582.3,618.8c-0.8,240.4-155.5,460.9-382.3,542.2c-24.2,8.7-41.2,3.1-48.7-16c-7.3-18.7,2.1-34.9,26.1-43.8
			c48.5-17.9,93.5-42.1,134.2-73.8c4.8-3.8,10-10.2,10.6-15.9c11.6-101.8-44.4-201-137.5-245.8c-11.3-5.4-19.5-5-30.7,1.6
			c-101.1,59.5-202.9,59.6-303.9-0.2c-11.5-6.8-19.9-6.7-30.7-1.1c-86.4,44.6-131.7,114.8-138.2,212c-2.1,31.2,6,52.4,34.4,66.3
			c38.1,18.6,76.1,37.4,113.3,57.9c10.5,5.7,22.3,16.1,25.4,26.6c7.3,25-18.5,43-46,33.4c-72.4-25.4-137.2-63.8-193.7-115.5
			c-309.8-283.4-227.9-784.7,156.1-955c337.9-149.9,735.4,60.4,799.1,423.2C1575.8,549.1,1578.2,584.1,1582.3,618.8z M1386.4,955.9
			c171.8-185.7,184.2-514.8-42.2-719.1C1125.2,38.9,777.5,70.4,596,305.5C420.2,533.4,485.3,823,618.5,954
			c5.6-51.6,22.3-98.9,51-141.7c29-43.1,67.5-76,113.1-100.9c-108.2-134.4-79.3-301.7,18.3-395.6c101.6-97.7,258.7-108.9,372.1-25.2
			c56.5,41.7,93.8,97,109.6,165.3c21.8,94.3-0.7,179.1-61.4,255.2C1317.9,765.2,1372.2,846,1386.4,955.9z M1227,522.3
			c-0.6-123.2-103.1-224.4-226.1-223.5c-123.5,1-224.6,103.2-223.5,226.1c1.1,122.3,102.9,222.9,225.2,222.6
			C1125.8,747.3,1227.6,645.2,1227,522.3z"/>
		<path class="st0" d="M833.1,1551.6c-24.2-0.2-37.2-11.4-38.7-28.6c-1.6-18.2,9.3-32,28.9-35c28.4-4.4,56.8-8.5,85.4-11.9
			c11.6-1.4,18.9-5.5,24.1-16.8c11.9-26.1,25.2-51.5,38.2-77c10.9-21.3,28.1-28.2,45.7-19.1c17.4,9,21.9,27,11.3,48.4
			c-16.5,33.5-32.8,67.3-50.7,100.1c-4.9,8.9-14.6,19.4-23.7,21.2C912,1540.8,869.8,1546.1,833.1,1551.6z"/>
	</g>
</g>
<g id="Calque_2" class="st1">
	<g class="st2">
		<path class="st0" d="M39.3,1562.2c1.2-4.8,2.9-9.5,3.6-14.3c5.5-40.7,26.5-69.9,65.6-83.6c50.5-17.7,102-17.5,152.6-0.4
			c41.7,14.1,65.5,45.7,66.6,88.5c2.3,86.7,4.6,173.7-0.4,260.1c-3.3,57.4-40.9,97.2-96,115.5c-58.1,19.3-109.6,4.9-152.6-38.7
			c-22.8-23.1-32.4-52.6-39.3-83.3C39.3,1724.8,39.3,1643.5,39.3,1562.2z M271.8,1826.5c-20.1,0-39.3,0.7-58.4-0.2
			c-12.8-0.6-22.4-9.2-21.6-21.5c0.5-8.4,7.2-18,13.9-23.7c4.8-4.1,14.3-3.2,21.7-3.4c17.3-0.4,34.5-0.1,52.2-0.1
			c0-18,0-33.3,0-50.3c-19.8,0-38.4,0.2-57.1,0c-19.6-0.2-31.6-9.5-31.9-24.3c-0.2-14.8,11.6-24.3,31.3-24.6
			c19.2-0.2,38.4-0.1,57.7-0.1c0-19.4,0-36,0-54.7c-19.9,0-38.6,0.6-57.2-0.3c-7.8-0.4-18-1.5-22.4-6.5c-5.2-6-9.9-19-6.8-24.3
			c4.8-8.2,15.8-16.3,25.1-17.5c20.1-2.6,40.7-0.8,61.1-0.8c-1.4-46.4-14.3-63.2-57.3-69.6c-23.2-3.4-47.7-3.8-70.9-0.7
			c-44,5.8-58.9,20.3-60.4,64.3c-2.6,75.5-1.3,151.2-1.5,226.8c0,4.9,1.1,9.9,2,14.8c7.8,42.8,44,73.7,89.7,76.9
			C220.1,1889.4,258.6,1864.9,271.8,1826.5z"/>
		<path class="st0" d="M1964.5,1798.6c-8.1,36.9-22.9,69.8-54.3,93.1c-41.6,30.8-87.6,36.9-134.7,17.3
			c-47.2-19.6-79.1-56.2-81.2-107.8c-3.2-80.3-1.9-160.9,0.3-241.3c1.1-41.9,31-73.1,73.5-84.2c38.9-10.1,77.9-10.3,116.9-0.6
			c44.7,11.2,69.4,38.8,76.1,84.2c0.5,3.5,2.2,6.9,3.4,10.4C1964.5,1646,1964.5,1722.3,1964.5,1798.6z M1750.1,1818.7
			c18.9,38,53.4,56.4,91.1,51c36.4-5.2,69.8-34.5,71-72c2.6-77.3,1.4-154.8-0.5-232.2c-0.6-25.4-16.9-41-43.6-43.8
			c-26.4-2.8-53.7-3.2-80.1-0.1c-32.8,4-45.8,23.5-44.3,59.7c17.3,0,34.7-0.4,52.1,0.1c17.8,0.6,29.9,11.4,28.4,25.7
			c-1.7,16.5-12.4,23.5-28.5,23.4c-17.4-0.1-34.8,0-53.3,0c0,16.4,0,30.4,0,47.1c17.5,0,34.2-0.2,51,0.1
			c20.1,0.4,31.4,9.5,31.1,24.6c-0.2,14.8-12.1,24.1-31.8,24.4c-16.7,0.3-33.4,0.1-50.1,0.1c0,15.4,0,28.2,0,42.5
			c16.2,0,31.1-0.1,46.1,0c23.1,0.1,35.4,8.5,35.9,24.2c0.5,16.5-11.7,25-36.4,25.2C1776.3,1818.8,1764.6,1818.7,1750.1,1818.7z"/>
		<path class="st0" d="M991.4,1331.3c-275.7-0.6-543.1-44.5-807-129c3.7,52.3,7.2,100.8,10.6,149.2c1,13.7,2.2,27.4,2.6,41.2
			c0.5,18.7-8.4,30.4-23.2,30c-16.8-0.5-24.4-11.2-25.6-26.8c-4-52.4-7.7-104.7-11.5-157.1c-1.4-20-3.1-39.9-4-59.9
			c-1.4-31.2,11.3-40.6,41.5-31.9c75.1,21.5,150.3,42.8,225.4,64.4c9.8,2.8,16.9,3.6,23.9-6.7c56.1-82.8,135.5-135.5,227.2-171.3
			c16.4-6.4,26.3-12.7,22.9-32.8c-2.7-15.3,5.1-27.3,22.4-28.3c17.4-1.1,25,10.3,26.1,25.7c2.3,29.9,3.4,59.9,5.1,89.9
			c0.2,4.1,1.4,8.2,2.6,14.9c20.1-7.2,38.7-13.8,57.4-20.4c5.9-2.1,11.8-4.3,17.8-5.9c13.6-3.6,24.3,1.6,29.3,13.9
			c5.4,13.1,1.5,26-12.3,31.3c-36.2,13.8-72.6,27.2-109.6,38.9c-17.2,5.4-28.8-4.4-30.8-23.1c-2.1-19.2-3-38.6-4.8-61.2
			c-83.4,31.5-155.1,75.7-209.3,150.4c173.5,36.4,346.2,54.7,523.3,54.8c0-19.3-0.2-37.2,0-55.1c0.3-25.4,8.5-33.2,33.6-35
			c106.2-7.4,212.4-14.4,318.4-23.3c36.4-3,72.4-11,108.5-16.7c0.7-2.4,1.4-4.8,2.2-7.2c-42-23.4-84-46.7-130.7-72.7
			c-1.4,23.3-2,39.8-3.4,56.3c-2.7,31.7-15,39.6-44.6,29.2c-29.5-10.4-59-20.8-88.4-31.5c-19.1-7-26.8-19.1-22.1-33.3
			c4.9-14.9,19.4-20,39.1-13.2c21.7,7.5,43.3,15.4,67.5,24c1.8-27.8,3.4-53.1,5.1-78.4c0.7-10.6,0.9-21.3,2.5-31.7
			c2.3-14.6,11.5-21.9,26.4-20.6c14.2,1.3,23.8,11.5,21.1,23.8c-6,27.6,11.6,33.2,30.8,40.9c54.5,21.8,104.4,51.3,147.8,91
			c8.5,7.8,16.2,11,28.4,7.6c95.2-26.5,190.7-51.7,285.8-78.2c34.7-9.7,46.9-0.8,45.1,34.8c-4.8,96.2-8.9,192.4-13.4,288.6
			c-0.5,11.2-1.3,22.5-2.4,33.7c-1.6,14.8-10.8,23.1-25.1,22.6c-14.4-0.5-22.6-10.2-23.5-24.6c-0.5-8.7,0.6-17.5,1-26.2
			c4.2-87.4,8.5-174.9,12.7-262.3c0.1-3.1,0-6.1,0-11.3c-10.7,2.9-20.2,5.1-29.4,8.1c-179,56.8-362.4,92.6-549.3,109.9
			c-57.3,5.3-115,7-172.6,8.8c-17.2,0.5-21.9,5.7-21.8,22.7c0.6,187.6,0.4,375.2,0.3,562.9c0,7.5-0.2,15-1,22.5
			c-1.5,13.3-10.2,20.3-22.6,20.9c-12.6,0.6-21.7-6.2-24.4-18.9c-1.5-7.2-1.6-14.9-1.6-22.3c-0.1-158.2-0.1-316.5-0.1-474.7
			C991.4,1346.1,991.4,1340,991.4,1331.3z"/>
		<path class="st0" d="M944.9,103.8c36.9,0,71.8,0,108.3,0c0.4-5.7,0.7-12.4,1.5-19c1.5-14,10.3-21.9,23.5-22.3
			c13.3-0.3,25.9,8.4,23.9,21.1c-5.1,32.4,16.1,36.9,38.7,46.6c149.1,64.2,234.2,178.1,258.3,337.9c3,19.8-4.8,28.8-28.4,33.8
			c-123.5,26.1-248.4,40-374.7,39.8c-123.9-0.2-246.2-14.2-367.3-39.2c-27.1-5.6-33.3-12.5-28.9-40.1
			c26.6-166.2,118.8-279.8,276.5-339.5c13.6-5.1,18.5-10.5,17.9-24.9c-1-23.2,8.2-35.4,24-35.9c15.5-0.5,23.5,10.3,25.6,34.5
			C943.9,99.1,944.5,101.5,944.9,103.8z M893.7,171.1c-128.4,34.6-234.1,175.6-240.2,286.1c230.9,46.9,461.6,47.4,692.4-0.7
			c-20.4-141.6-135.5-258-242.7-285.3c0,22.8,0.1,45.2,0,67.7c-0.2,19.6-9.4,31.6-24.1,31.9c-15,0.3-24.6-11.4-24.8-31
			c-0.2-23.8,0.4-47.5-0.5-71.3c-0.2-4.6-4.7-12.5-8.3-13.1c-33.4-6-66.9-6.3-102,1.8c0,8.5,0.1,16.5,0,24.6
			c-0.2,21.9,1,43.9-1.4,65.5c-0.9,8-9.3,17.9-16.9,21.4c-5.8,2.7-17.9-1-23.1-6.1c-5.4-5.3-7.6-15.5-8-23.8
			C893.1,216.4,893.7,193.9,893.7,171.1z"/>
		<path class="st0" d="M637,581.3c-18.1,60.8,3.5,116,54.8,142.2c18,9.2,22.1,23.6,24,41.1c7.2,65.3,27.7,126,70.3,176.8
			c61,72.8,137.3,119.3,235.1,109.1c88.9-9.3,157.2-58.3,206.8-132.1c29.8-44.3,46.7-93.9,52.2-146.9c2.5-24,10.2-40.7,33.8-52.9
			c44.5-23.2,63.7-83,46.5-136.8c-8,5.7-15.4,10.8-22.6,16.2c-13.7,10.2-27.8,10-36.7-1.3c-10-12.7-6.7-24.5,3.7-35.2
			c3.5-3.6,7.4-6.7,11.4-9.7c47.7-35.9,88.8-21.4,97.3,37.2c10.1,70.1-9.7,129.7-71.1,171.7c-6.9,4.7-12,15.5-13.4,24.2
			c-20,123.5-80.1,219.8-191.5,280.4c-116.5,63.3-246.1,44.2-348.9-49.2c-69.2-62.9-107.2-141.8-120.3-233.3
			c-1.7-11.9-6.7-18.3-16.4-24.7c-58.8-38.7-86.5-120.3-64.4-187.3c11.6-35,41.9-48.2,74.4-31c12,6.3,23,15.2,32.7,24.8
			c9.4,9.3,10.2,21.7,1.1,32.2c-9.6,11.1-21.5,11.8-33.5,3.3C654.3,594.3,646.6,588.4,637,581.3z"/>
		<path class="st0" d="M1018.1,673.5c-37.7-3.3-37.7-3.3-48.1,30c-0.4,1.2-0.9,2.3-1.3,3.5C941.3,793.3,855,821,781.5,766
			c-11.8-8.8-22.8-23.3-26.5-37.2c-8.1-29.9-12.5-60.9-16-91.7c-2-18,8.6-27.6,27.4-27.7c63.3-0.4,126.6-0.4,189.8,0.2
			c7,0.1,14.8,3.1,20.6,7c15.2,10.3,29,10.2,44.2-0.3c6.2-4.3,15-6.7,22.6-6.8c61.4-0.5,122.8-0.4,184.2-0.2
			c23.3,0.1,33,9.3,30.6,32.2c-3,27.8-7.1,55.7-13.7,82.8c-6.6,27.1-25.1,46.6-51.9,54.8c-21.3,6.5-43.7,12.4-65.7,12.7
			c-42.6,0.6-74.6-18.8-89.7-60.6C1030.6,712.5,1024.8,693.5,1018.1,673.5z M791.5,658.9c3.6,65.3,14.3,78.7,70.8,83.9
			c40,3.7,63.2-27.7,65.3-83.9C882.6,658.9,837.8,658.9,791.5,658.9z M1069.5,659c5.9,62.8,27.4,87.9,69.8,83.8
			c50.6-4.9,71-30.7,65.6-83.8C1160.2,659,1115.4,659,1069.5,659z"/>
		<path class="st0" d="M1000.7,449.5c-50.2-6.3-97.3-12.1-144.3-18.1c-3.7-0.5-7.3-1.6-10.9-2.6c-15-4-22.8-13.6-19.7-29
			c3.1-15.6,14.8-21.1,29.6-19c22.3,3.2,44.3,8,66.6,10.7c72,8.6,143.5,5.2,214.6-9.4c7.9-1.6,19-1.4,24.7,3
			c6.1,4.8,12,16.9,9.9,23.2c-2.7,8.3-12.5,18.6-20.6,19.9C1099.9,436.8,1049.1,443,1000.7,449.5z"/>
	</g>
</g>
</svg>
