<?xml version="1.0" encoding="utf-8"?>
<!-- Generator: Adobe Illustrator 24.0.1, SVG Export Plug-In . SVG Version: 6.00 Build 0)  -->
<svg version="1.1" id="Calque_1" xmlns="http://www.w3.org/2000/svg" xmlns:xlink="http://www.w3.org/1999/xlink" x="0px" y="0px"
	 viewBox="0 0 87.8 34.6" style="enable-background:new 0 0 87.8 34.6;" xml:space="preserve">
<style type="text/css">
	.st0{fill:#FFFFFF;}
	.st1{fill:#F4B812;}
</style>
<polygon class="st0" points="7.2,17.4 2.6,10.7 0.5,10.7 0.5,21.2 2.7,21.2 2.7,14.4 7.3,21.2 9.4,21.2 9.4,10.7 7.2,10.7 "/>
<path class="st0" d="M16.2,10.4c-2.9,0-5.2,2.4-5.2,5.3c0,0.1,0,0.2,0,0.2c0,2.9,2.4,5.3,5.3,5.3s5.3-2.4,5.3-5.3
	c0.1-3-2.3-5.4-5.2-5.5C16.3,10.4,16.3,10.4,16.2,10.4z M16.2,12.8c1.8,0,2.8,1.3,2.8,3.3s-1,3.1-2.8,3.1c-1.6,0-2.8-1.2-2.8-2.8
	c0-0.1,0-0.2,0-0.3C13.4,14,14.5,12.8,16.2,12.8z"/>
<polygon class="st0" points="26.9,18.1 24.3,10.7 21.7,10.7 25.9,21.2 28,21.2 32.3,10.7 29.6,10.7 "/>
<path class="st0" d="M37.6,10.4c-2.9,0-5.2,2.4-5.2,5.3c0,0.1,0,0.1,0,0.2c-0.1,2.9,2.1,5.3,5,5.5c0.1,0,0.1,0,0.2,0
	c2.9,0.1,5.3-2.1,5.3-5c0-0.2,0-0.3,0-0.5c0.1-2.9-2.1-5.4-5-5.5C37.8,10.4,37.7,10.4,37.6,10.4z M37.6,12.8c1.8,0,2.8,1.3,2.8,3.3
	s-1,3.1-2.8,3.1c-1.6,0-2.8-1.2-2.8-2.8c0-0.1,0-0.2,0-0.3C34.8,14,36,12.8,37.6,12.8z"/>
<path class="st0" d="M7.2,28.1c-0.5-1.1-1.6-1.9-2.8-1.9c-1.8,0-3.3,1.5-3.3,3.4l0,0C1,31.4,2.4,32.9,4.2,33c0.1,0,0.1,0,0.2,0
	c1.2,0,2.3-0.7,2.8-1.8l0.9,0.4C7.4,33,6,33.9,4.4,33.8c-2.3,0-4.2-1.9-4.2-4.3c0-0.1,0-0.1,0-0.2c0-2.4,1.8-4.3,4.2-4.5
	c1.7,0,3.1,1,3.7,2.5L7.2,28.1z"/>
<path class="st0" d="M14.3,33v0.9H9.7v-8.5h0.8V33H14.3z"/>
<path class="st0" d="M15.9,34v-8.5h0.9V34H15.9z"/>
<path class="st0" d="M27.2,25.6V34h-1v-6.1L23.7,34h-0.9l-2.5-6.1V34h-0.9v-8.5h0.9l3.1,7.4l3-7.4L27.2,25.6L27.2,25.6z"/>
<path class="st0" d="M34.3,31.7h-4L29.5,34h-1l3.4-8.5h1.2l3.4,8.5h-1L34.3,31.7z M34.1,30.8l-1.6-4.2l-1.6,4.2H34.1z"/>
<path class="st0" d="M42.7,26.4h-2.8V34H39v-7.6h-2.8v-0.9h6.7v0.9H42.7z"/>
<polygon class="st1" points="71.3,24.7 71.3,34 82.9,34 82.9,18.6 86.8,18.6 67,0.3 47.4,18.6 51.1,18.6 51.1,34 62.9,34 62.9,24.7 
	"/>
</svg>
